<?xml version="1.0" encoding="utf-8"?>
<!-- Generator: Adobe Illustrator 19.2.1, SVG Export Plug-In . SVG Version: 6.00 Build 0)  -->
<svg version="1.1" id="Layer_1" xmlns="http://www.w3.org/2000/svg" xmlns:xlink="http://www.w3.org/1999/xlink" x="0px" y="0px"
	 viewBox="0 0 1729.6 775" style="enable-background:new 0 0 1729.6 775;" xml:space="preserve">
<style type="text/css">
	.st0{opacity:0.35;}
	.st1{fill:none;}
	.st2{font-family:'HelvNeueBoldforIBM';}
	.st3{font-size:42px;}
	.st4{fill:#FFFFFF;}
	.st5{fill:url(#SVGID_4_);}
	.st6{fill:url(#SVGID_5_);}
	.st7{fill:url(#SVGID_6_);}
	.st8{fill:url(#SVGID_7_);}
	.st9{fill:#2BB29F;}
	.st10{fill:none;stroke:#5296D1;stroke-width:2;stroke-miterlimit:10;}
	.st11{fill:#5296D1;}
	.st12{fill:none;stroke:#5296D1;stroke-width:4;stroke-miterlimit:10;}
	.st13{fill:#09B5A1;}
	.st14{fill:#2E344E;stroke:#5296D1;stroke-width:4;stroke-miterlimit:10;}
	.st15{font-family:'HelvNeueLightforIBM';}
	.st16{font-size:32px;}
	.st17{fill:none;stroke:#A7A9AC;stroke-miterlimit:10;}
</style>
<g>
	
		<image style="overflow:visible;" width="47" height="46" id="uoM1md_1_" xlink:href="89C8D4E7270FC7CE.png"  transform="matrix(1.9277 0 0 1.9277 361.6667 631.9569)">
	</image>
</g>
<g>
	<g>
		<defs>
			<polyline id="SVGID_1_" points="12.8,502 12.8,341.6 305.9,341.6 305.9,502 30.1,502 			"/>
		</defs>
		<linearGradient id="SVGID_2_" gradientUnits="userSpaceOnUse" x1="45.9666" y1="535.1666" x2="272.703" y2="308.4301">
			<stop  offset="0" style="stop-color:#3B7D4C"/>
			<stop  offset="1" style="stop-color:#3F6DB5"/>
		</linearGradient>
		<use xlink:href="#SVGID_1_"  style="overflow:visible;fill:url(#SVGID_2_);"/>
		<clipPath id="SVGID_3_">
			<use xlink:href="#SVGID_1_"  style="overflow:visible;"/>
		</clipPath>
	</g>
</g>
<g>
	<g class="st0">
		<rect x="29.9" y="405.2" class="st1" width="257.7" height="49.4"/>
		<text transform="matrix(1 0 0 1 44.1543 435.1953)" class="st2 st3">Onboarding</text>
	</g>
	<g>
		<rect x="29.1" y="404.5" class="st1" width="257.7" height="49.4"/>
		<text transform="matrix(1 0 0 1 43.4343 434.4753)" class="st4 st2 st3">Onboarding</text>
	</g>
</g>
<linearGradient id="SVGID_4_" gradientUnits="userSpaceOnUse" x1="396.415" y1="-281.1666" x2="623.1516" y2="-54.4301" gradientTransform="matrix(1 0 0 -1 0 254)">
	<stop  offset="0" style="stop-color:#F05252"/>
	<stop  offset="1" style="stop-color:#855CA7"/>
</linearGradient>
<polyline class="st5" points="363.2,502 363.2,341.6 656.3,341.6 656.3,502 381.6,502 "/>
<linearGradient id="SVGID_5_" gradientUnits="userSpaceOnUse" x1="745.8976" y1="-281.1666" x2="972.634" y2="-54.4301" gradientTransform="matrix(1 0 0 -1 0 254)">
	<stop  offset="0" style="stop-color:#4DC1B8"/>
	<stop  offset="1" style="stop-color:#3C80BF"/>
</linearGradient>
<polyline class="st6" points="712.7,502 712.7,341.6 1005.8,341.6 1005.8,502 731.1,502 "/>
<linearGradient id="SVGID_6_" gradientUnits="userSpaceOnUse" x1="1101.3798" y1="-281.1666" x2="1328.1163" y2="-54.4301" gradientTransform="matrix(1 0 0 -1 0 254)">
	<stop  offset="0" style="stop-color:#F9A476"/>
	<stop  offset="1" style="stop-color:#E63A80"/>
</linearGradient>
<polyline class="st7" points="1068.2,502 1068.2,341.6 1361.3,341.6 1361.3,502 1086.6,502 "/>
<linearGradient id="SVGID_7_" gradientUnits="userSpaceOnUse" x1="1459.8618" y1="-281.1666" x2="1686.5984" y2="-54.4301" gradientTransform="matrix(1 0 0 -1 0 254)">
	<stop  offset="0" style="stop-color:#C02070"/>
	<stop  offset="1" style="stop-color:#8D4696"/>
</linearGradient>
<polyline class="st8" points="1426.7,502 1426.7,341.6 1719.8,341.6 1719.8,502 1445.1,502 "/>
<g>
	<g class="st0">
		<rect x="377.3" y="405.2" class="st1" width="261" height="53.1"/>
		<text transform="matrix(1 0 0 1 380.2546 435.1953)" class="st2 st3">Client Insight</text>
	</g>
	<g>
		<rect x="376.6" y="404.5" class="st1" width="261" height="53.1"/>
		<text transform="matrix(1 0 0 1 379.5346 434.4753)" class="st4 st2 st3">Client Insight</text>
	</g>
</g>
<g>
	<g>
		<defs>
			<polyline id="SVGID_8_" points="714.6,502 714.6,341.3 1012.1,341.3 1012.1,502 732.5,502 			"/>
		</defs>
		<clipPath id="SVGID_9_">
			<use xlink:href="#SVGID_8_"  style="overflow:visible;"/>
		</clipPath>
	</g>
</g>
<g>
	<g class="st0">
		<rect x="730.1" y="405.2" class="st1" width="266" height="68"/>
		<text transform="matrix(1 0 0 1 801.8194 435.1953)" class="st2 st3">Ideate</text>
	</g>
	<g>
		<rect x="729.4" y="404.5" class="st1" width="266" height="68"/>
		<text transform="matrix(1 0 0 1 801.0994 434.4753)" class="st4 st2 st3">Ideate</text>
	</g>
</g>
<g>
	<g class="st0">
		<rect x="1082.7" y="405.2" class="st1" width="266" height="54"/>
		<text transform="matrix(1 0 0 1 1129.0201 435.1953)" class="st2 st3">Prioritize</text>
	</g>
	<g>
		<rect x="1081.9" y="404.5" class="st1" width="266" height="54"/>
		<text transform="matrix(1 0 0 1 1128.3002 434.4753)" class="st4 st2 st3">Prioritize</text>
	</g>
</g>
<g>
	<g class="st0">
		<rect x="1442.8" y="405.2" class="st1" width="264" height="60.2"/>
		<text transform="matrix(1 0 0 1 1495.3502 435.1953)" class="st2 st3">Develop</text>
	</g>
	<g>
		<rect x="1442.1" y="404.5" class="st1" width="264" height="60.2"/>
		<text transform="matrix(1 0 0 1 1494.6302 434.4753)" class="st4 st2 st3">Develop</text>
	</g>
</g>
<image style="overflow:visible;" width="208" height="196" xlink:href="../../../../IBM Design Assets/Watson/watson-avatar.png"  transform="matrix(0.6572 0 0 0.6572 465.9849 89.8899)">
</image>
<g>
	<path class="st9" d="M635.8,127.5c3.3,0,6,0.8,7.9,2.3c2,1.5,2.9,3.7,2.9,6.5h-5.8c-0.1-1.4-0.5-2.4-1.4-3.1c-0.8-0.7-2.2-1-3.9-1
		c-1.2,0-2.2,0.3-3,0.8c-0.8,0.5-1.1,1.3-1.1,2.3c0,0.8,0.2,1.4,0.7,1.7s1.1,0.7,2,0.9c0.9,0.3,2.4,0.7,4.5,1.2
		c2.3,0.6,4,1.2,5.2,1.8c1.2,0.7,2.1,1.5,2.8,2.5s1,2.3,1,3.8c0,1.7-0.5,3.3-1.4,4.6s-2.2,2.4-4,3.1c-1.7,0.7-3.7,1-5.9,1
		c-3.4,0-6.1-0.8-8.3-2.5s-3.2-4-3.2-6.9v-0.2h5.8c0,1.6,0.5,2.8,1.6,3.7s2.5,1.3,4.3,1.3c1.6,0,2.9-0.3,3.9-0.9
		c1-0.6,1.5-1.4,1.5-2.5c0-0.7-0.3-1.4-0.8-1.9c-0.5-0.5-1.2-0.9-2.1-1.2s-2.4-0.7-4.5-1.2c-2.4-0.6-4.2-1.3-5.3-1.9
		c-1.1-0.7-2-1.5-2.5-2.5c-0.6-1-0.9-2.1-0.9-3.5c0-1.7,0.5-3.2,1.5-4.4c1-1.3,2.2-2.2,3.8-2.8C632.5,127.8,634.1,127.5,635.8,127.5
		z"/>
	<path class="st9" d="M659.6,135.1c1.8,0,3.5,0.4,4.9,1.3c1.4,0.9,2.6,2.1,3.4,3.7c0.8,1.6,1.2,3.5,1.2,5.6c0,0.2,0,0.5,0,1H655
		c0.1,1.6,0.5,2.8,1.2,3.7c0.8,0.9,2,1.3,3.6,1.3c1,0,1.9-0.2,2.7-0.7c0.8-0.5,1.3-1.1,1.6-1.8h4.8c-1.4,4.4-4.5,6.6-9.2,6.6
		c-1.8,0-3.5-0.4-5-1.2c-1.5-0.8-2.8-1.9-3.7-3.6c-0.9-1.6-1.4-3.5-1.4-5.6c0-2,0.5-3.8,1.4-5.5c0.9-1.6,2.2-2.9,3.7-3.7
		S657.9,135.1,659.6,135.1z M663.8,143.3c-0.3-1.5-0.7-2.5-1.4-3.2c-0.7-0.7-1.7-1-2.9-1c-1.3,0-2.4,0.4-3.1,1.1
		c-0.8,0.7-1.2,1.8-1.3,3.1H663.8z"/>
	<path class="st9" d="M677.5,128.1v27.1h-5.4v-27.1H677.5z"/>
	<path class="st9" d="M686.7,128.1v27.1h-5.4v-27.1H686.7z"/>
	<path class="st9" d="M710,128.1v5h-13.1v6.3h11.4v4.6h-11.4v11.2h-6v-27.1H710z"/>
	<path class="st9" d="M720.8,135.1c3.1,0,5.6,1,7.4,2.9c1.8,1.9,2.7,4.4,2.7,7.5c0,3.1-0.9,5.6-2.8,7.5c-1.9,1.9-4.3,2.8-7.4,2.8
		c-3.1,0-5.6-1-7.4-2.9c-1.8-1.9-2.7-4.4-2.7-7.5c0-3.2,0.9-5.7,2.8-7.6C715.3,136,717.8,135.1,720.8,135.1z M716.1,145.4
		c0,2,0.4,3.5,1.2,4.6c0.8,1.1,2,1.6,3.5,1.6c1.6,0,2.8-0.6,3.6-1.7c0.8-1.1,1.2-2.6,1.2-4.6c0-2-0.4-3.6-1.2-4.7
		c-0.8-1.1-2-1.6-3.6-1.6c-1.5,0-2.7,0.5-3.5,1.6C716.5,141.8,716.1,143.4,716.1,145.4z"/>
	<path class="st9" d="M745.3,135.1c0.5,0,0.8,0.1,1.2,0.2v5c-0.6-0.1-1.2-0.2-1.9-0.2c-3.5,0-5.3,2.1-5.3,6.3v8.9h-5.4v-19.6h5.1
		v3.6h0.1c0.5-1.3,1.4-2.3,2.5-3C742.7,135.4,743.9,135.1,745.3,135.1z"/>
	<path class="st9" d="M753.9,135.6l3.6,13.3h0.1l3.3-13.3h5.2l3.3,13.3h0.1l3.6-13.3h5.5l-6.2,19.6h-5.5l-3.5-13.2h-0.1l-3.3,13.2
		h-5.6l-6.2-19.6H753.9z"/>
	<path class="st9" d="M788.8,135.1c5.7,0,8.6,1.9,8.6,5.6v10.4c0,1.9,0.2,3.3,0.7,4.2h-5.5c-0.2-0.6-0.3-1.2-0.4-1.9
		c-1.6,1.6-3.8,2.4-6.6,2.4c-2.1,0-3.7-0.5-4.9-1.6c-1.2-1-1.8-2.5-1.8-4.3c0-1.8,0.6-3.2,1.7-4.2c1.2-1,3.3-1.7,6.3-2
		c2.2-0.2,3.6-0.5,4.1-0.9c0.6-0.3,0.9-0.9,0.9-1.6c0-0.9-0.3-1.5-0.8-2c-0.5-0.4-1.4-0.6-2.7-0.6c-1.1,0-2,0.2-2.6,0.7
		c-0.6,0.5-0.9,1.2-1,2.3h-5.4c0.1-2.2,1-3.8,2.7-4.9C783.8,135.6,786,135.1,788.8,135.1z M784.3,149.6c0,1.7,1.1,2.5,3.3,2.5
		c2.9,0,4.3-1.5,4.4-4.4v-2.1c-0.4,0.4-1.5,0.7-3.3,1c-1.5,0.2-2.6,0.5-3.3,0.9C784.6,147.9,784.3,148.7,784.3,149.6z"/>
	<path class="st9" d="M812.8,135.1c0.5,0,0.8,0.1,1.2,0.2v5c-0.6-0.1-1.2-0.2-1.9-0.2c-3.5,0-5.3,2.1-5.3,6.3v8.9h-5.4v-19.6h5.1
		v3.6h0.1c0.5-1.3,1.4-2.3,2.5-3C810.2,135.4,811.4,135.1,812.8,135.1z"/>
	<path class="st9" d="M834.3,128.1v27.1h-5.1v-2.5h-0.1c-1.2,2-3.2,3-6,3c-2.7,0-4.9-1-6.4-3c-1.6-2-2.4-4.5-2.4-7.6
		c0-3,0.8-5.4,2.4-7.3c1.6-1.9,3.7-2.8,6.3-2.8c1.2,0,2.3,0.2,3.4,0.7c1.1,0.5,1.9,1.2,2.5,2.2h0.1v-9.9H834.3z M819.7,145.4
		c0,1.8,0.4,3.3,1.3,4.5c0.8,1.2,2,1.8,3.5,1.8c1.5,0,2.7-0.6,3.5-1.7c0.8-1.1,1.2-2.7,1.2-4.7c0-2-0.4-3.5-1.2-4.6
		c-0.8-1.1-2-1.6-3.5-1.6c-1.5,0-2.7,0.6-3.5,1.7C820.1,142,819.7,143.5,819.7,145.4z"/>
	<path class="st9" d="M858.2,136v7.6h7.6v4.1h-7.6v7.6h-4.1v-7.6h-7.6v-4.1h7.6V136H858.2z"/>
	<path class="st9" d="M882,128.1l4.3,18.5h0.1l4.7-18.5h5.6l4.6,18.7h0.1l4.4-18.7h5.9l-7.3,27.1h-5.9l-4.6-18.5h-0.1l-4.5,18.5h-6
		l-7.2-27.1H882z"/>
	<path class="st9" d="M920.8,135.1c5.7,0,8.6,1.9,8.6,5.6v10.4c0,1.9,0.2,3.3,0.7,4.2h-5.5c-0.2-0.6-0.3-1.2-0.4-1.9
		c-1.6,1.6-3.8,2.4-6.6,2.4c-2.1,0-3.7-0.5-4.9-1.6c-1.2-1-1.8-2.5-1.8-4.3c0-1.8,0.6-3.2,1.7-4.2c1.2-1,3.3-1.7,6.3-2
		c2.2-0.2,3.6-0.5,4.1-0.9c0.6-0.3,0.9-0.9,0.9-1.6c0-0.9-0.3-1.5-0.8-2c-0.5-0.4-1.4-0.6-2.7-0.6c-1.1,0-2,0.2-2.6,0.7
		c-0.6,0.5-0.9,1.2-1,2.3h-5.4c0.1-2.2,1-3.8,2.7-4.9C915.8,135.6,918,135.1,920.8,135.1z M916.3,149.6c0,1.7,1.1,2.5,3.3,2.5
		c2.9,0,4.3-1.5,4.4-4.4v-2.1c-0.4,0.4-1.5,0.7-3.3,1c-1.5,0.2-2.6,0.5-3.3,0.9C916.6,147.9,916.3,148.7,916.3,149.6z"/>
	<path class="st9" d="M940,129.7v5.9h4v3.6h-4v9.7c0,0.9,0.2,1.5,0.5,1.8c0.3,0.3,0.9,0.5,1.8,0.5c0.7,0,1.2,0,1.7-0.2v4.2
		c-0.8,0.1-1.8,0.2-3.2,0.2c-2.1,0-3.6-0.4-4.6-1.1c-1-0.7-1.5-1.9-1.5-3.7v-11.5h-3.3v-3.6h3.3v-5.9H940z"/>
	<path class="st9" d="M954.7,135.1c2.6,0,4.7,0.5,6.2,1.6s2.3,2.6,2.5,4.7h-5.1c-0.1-0.9-0.4-1.6-1-2s-1.5-0.6-2.7-0.6
		c-1,0-1.8,0.2-2.3,0.5c-0.5,0.3-0.7,0.8-0.7,1.4c0,0.5,0.2,0.8,0.5,1.1c0.3,0.3,0.8,0.6,1.5,0.8c0.7,0.2,1.4,0.4,2.2,0.6
		c2.5,0.5,4.2,1,5.2,1.5c1,0.5,1.8,1.1,2.2,1.8s0.7,1.6,0.7,2.6c0,2.2-0.8,3.9-2.4,5.1c-1.6,1.2-3.8,1.8-6.6,1.8
		c-2.9,0-5.1-0.6-6.7-1.9c-1.6-1.2-2.4-2.9-2.5-5.1h5.1c0,1,0.4,1.8,1.2,2.4c0.8,0.6,1.8,0.9,3,0.9c1,0,1.9-0.2,2.5-0.7
		c0.7-0.4,1-1.1,1-1.8c0-0.5-0.2-0.9-0.6-1.3s-1-0.6-1.8-0.9c-0.8-0.3-1.9-0.5-3.5-0.9c-1.3-0.3-2.4-0.6-3.4-1c-1-0.4-1.7-1-2.3-1.7
		c-0.5-0.7-0.8-1.6-0.8-2.6c0-1.3,0.3-2.4,0.9-3.4c0.6-1,1.6-1.7,2.9-2.2C951.3,135.3,952.8,135.1,954.7,135.1z"/>
	<path class="st9" d="M975.8,135.1c3.1,0,5.6,1,7.4,2.9c1.8,1.9,2.7,4.4,2.7,7.5c0,3.1-0.9,5.6-2.8,7.5c-1.9,1.9-4.3,2.8-7.4,2.8
		c-3.1,0-5.6-1-7.4-2.9c-1.8-1.9-2.7-4.4-2.7-7.5c0-3.2,0.9-5.7,2.8-7.6C970.3,136,972.7,135.1,975.8,135.1z M971,145.4
		c0,2,0.4,3.5,1.2,4.6c0.8,1.1,2,1.6,3.5,1.6c1.6,0,2.8-0.6,3.6-1.7c0.8-1.1,1.2-2.6,1.2-4.6c0-2-0.4-3.6-1.2-4.7
		c-0.8-1.1-2-1.6-3.6-1.6c-1.5,0-2.7,0.5-3.5,1.6C971.4,141.8,971,143.4,971,145.4z"/>
	<path class="st9" d="M1000,135.1c2.5,0,4.3,0.6,5.5,1.9c1.1,1.3,1.7,3.3,1.7,6v12.2h-5.4v-11.1c0-1.6-0.3-2.8-0.8-3.6
		c-0.5-0.8-1.4-1.2-2.7-1.2c-1.5,0-2.5,0.4-3.2,1.3s-1,2.3-1,4.4v10.2h-5.4v-19.6h5.1v2.7h0.1C995.3,136.1,997.3,135.1,1000,135.1z"
		/>
	<path class="st4" d="M628.8,172.2v15.5c0,2.7,0.6,4.7,1.8,6c1.2,1.3,3,1.9,5.5,1.9c2.5,0,4.4-0.7,5.6-2c1.2-1.3,1.8-3.3,1.8-6
		v-15.5h2.4v15.9c0,3.1-0.9,5.4-2.6,7.1c-1.7,1.7-4.1,2.5-7.2,2.5c-3.1,0-5.5-0.8-7.2-2.5c-1.7-1.7-2.5-4-2.5-7.1v-15.9H628.8z"/>
	<path class="st4" d="M658.4,178.6c2.3,0,4,0.6,5,1.7c1,1.1,1.5,2.8,1.5,5.2v11.7h-2.2v-11.3c0-3.6-1.5-5.4-4.6-5.4
		c-1.7,0-3.1,0.6-4.1,1.8c-1,1.2-1.6,2.7-1.6,4.6v10.4h-2.2v-18.1h2.2v3.1h0.1c0.4-1.1,1.2-2,2.2-2.6
		C655.9,179,657.1,178.6,658.4,178.6z"/>
	<path class="st4" d="M685.1,172.2v25h-2v-3.4H683c-0.5,1.1-1.3,2.1-2.5,2.8c-1.2,0.7-2.5,1.1-4,1.1c-2.5,0-4.4-0.9-5.9-2.6
		c-1.5-1.7-2.2-4-2.2-7c0-2.9,0.7-5.2,2.2-6.9c1.5-1.8,3.4-2.6,5.9-2.6c1.5,0,2.8,0.4,4,1.1c1.2,0.7,1.9,1.7,2.3,2.8h0.1v-10.4
		H685.1z M670.6,188.2c0,2.3,0.5,4.1,1.6,5.5c1.1,1.4,2.5,2.2,4.3,2.2c1.9,0,3.4-0.7,4.6-2c1.2-1.4,1.7-3.2,1.7-5.7
		c0-2.4-0.6-4.3-1.7-5.6c-1.1-1.4-2.7-2.1-4.6-2.1c-1.8,0-3.3,0.7-4.3,2.1C671.1,184,670.6,185.9,670.6,188.2z"/>
	<path class="st4" d="M696.7,178.6c2.4,0,4.4,0.9,5.8,2.6c1.4,1.7,2.2,4.1,2.2,7v0.5h-13.9c0,2.1,0.5,3.8,1.6,5.1
		c1.1,1.3,2.5,2,4.3,2c3,0,4.9-1.5,5.7-4.6h2.2c-0.5,2.2-1.4,3.9-2.7,4.9c-1.3,1-3,1.6-5.2,1.6c-2.5,0-4.5-0.9-6-2.6
		c-1.5-1.7-2.2-4-2.2-7c0-2.8,0.7-5.2,2.2-6.9S694.2,178.6,696.7,178.6z M702.4,186.9c0-1.8-0.6-3.3-1.7-4.6
		c-1.1-1.2-2.4-1.9-4.1-1.9c-1.6,0-2.9,0.6-4,1.7c-1,1.2-1.7,2.7-2,4.7H702.4z"/>
	<path class="st4" d="M717.1,181.1h-0.4c-1.8,0-3.4,0.6-4.6,1.8c-1.2,1.2-1.8,2.8-1.8,4.7v9.6h-2.2v-18.1h2v4.2h0.1
		c0.5-1.4,1.4-2.6,2.5-3.3c1.1-0.8,2.4-1.2,3.9-1.2h0.5V181.1z"/>
	<path class="st4" d="M725.8,178.6c2,0,3.5,0.5,4.7,1.5s1.8,2.4,1.9,4.3h-2.2c0-1.3-0.5-2.2-1.3-2.9c-0.9-0.7-2-1-3.4-1
		c-1.3,0-2.3,0.3-3.1,0.8c-0.8,0.6-1.2,1.3-1.2,2.3c0,1.5,1.4,2.5,4.1,3.1c2.8,0.6,4.5,1.1,5.1,1.4c0.6,0.3,1.1,0.7,1.5,1.2
		c0.4,0.5,0.7,0.9,0.8,1.4c0.2,0.5,0.2,1,0.2,1.6c0,1.6-0.7,2.9-2,3.9c-1.3,1-3.1,1.5-5.2,1.5c-4.6,0-7-2.1-7.4-6.4h2.2
		c0.1,1.4,0.6,2.6,1.6,3.3c1,0.8,2.2,1.2,3.7,1.2c1.5,0,2.7-0.3,3.6-1c0.9-0.6,1.4-1.5,1.4-2.4c0-0.9-0.3-1.7-1-2.2
		c-0.7-0.5-1.8-0.9-3.2-1.2l-2.3-0.5c-1.8-0.4-3.1-1-3.9-1.7c-0.9-0.7-1.3-1.8-1.3-3.1c0-1.6,0.6-2.8,1.9-3.7
		C722.2,179.1,723.9,178.6,725.8,178.6z"/>
	<path class="st4" d="M739.8,173.7v5.4h3.7v1.9h-3.7v12.3c0,0.8,0.2,1.4,0.5,1.8c0.3,0.3,0.8,0.5,1.6,0.5c0.4,0,1,0,1.6-0.1v1.9
		c-0.9,0-1.6,0.1-2,0.1c-1.6,0-2.6-0.3-3.1-0.9s-0.8-1.6-0.8-3V181h-3.1v-1.9h3.1v-5.4H739.8z"/>
	<path class="st4" d="M753.5,178.6c4.4,0,6.6,1.9,6.6,5.8v9.6c0,0.9,0.4,1.3,1.3,1.3c0.3,0,0.5,0,0.7-0.1v1.9
		c-0.4,0.1-0.9,0.1-1.4,0.1c-1,0-1.7-0.3-2.1-0.8c-0.4-0.5-0.5-1.3-0.5-2.3v-0.1H758c-0.8,1.3-1.8,2.3-2.8,2.8
		c-1,0.6-2.3,0.8-3.8,0.8c-1.9,0-3.4-0.5-4.4-1.4c-1.1-0.9-1.6-2.2-1.6-3.9c0-1.2,0.3-2.2,0.8-2.9c0.5-0.7,1.4-1.3,2.5-1.8
		c1.1-0.4,2.9-0.8,5.5-1c1.4-0.1,2.3-0.3,2.6-0.5c0.4-0.2,0.7-0.4,0.8-0.8c0.2-0.3,0.3-0.8,0.3-1.3c0-1.3-0.4-2.3-1.2-2.8
		c-0.8-0.6-2-0.9-3.5-0.9c-3.1,0-4.7,1.4-4.8,4.2h-2.2c0.1-2,0.8-3.5,2.1-4.5C749.5,179.2,751.2,178.6,753.5,178.6z M757.8,187.4
		c-0.2,0.4-1,0.7-2.3,0.9l-2.2,0.3c-2.2,0.3-3.7,0.8-4.5,1.3c-0.8,0.6-1.3,1.4-1.3,2.4c0,1,0.4,1.8,1.1,2.5c0.7,0.7,1.7,1,2.9,1.1
		c1.8,0,3.3-0.5,4.5-1.6s1.8-2.4,1.8-4.1L757.8,187.4L757.8,187.4z"/>
	<path class="st4" d="M773.1,178.6c2.3,0,4,0.6,5,1.7c1,1.1,1.5,2.8,1.5,5.2v11.7h-2.2v-11.3c0-3.6-1.5-5.4-4.6-5.4
		c-1.7,0-3.1,0.6-4.1,1.8c-1,1.2-1.6,2.7-1.6,4.6v10.4H765v-18.1h2.2v3.1h0.1c0.4-1.1,1.2-2,2.2-2.6
		C770.6,179,771.8,178.6,773.1,178.6z"/>
	<path class="st4" d="M799.8,172.2v25h-2v-3.4h-0.1c-0.5,1.1-1.3,2.1-2.5,2.8c-1.2,0.7-2.5,1.1-4,1.1c-2.5,0-4.4-0.9-5.9-2.6
		c-1.5-1.7-2.2-4-2.2-7c0-2.9,0.7-5.2,2.2-6.9c1.5-1.8,3.4-2.6,5.9-2.6c1.5,0,2.8,0.4,4,1.1c1.2,0.7,1.9,1.7,2.3,2.8h0.1v-10.4
		H799.8z M785.3,188.2c0,2.3,0.5,4.1,1.6,5.5c1.1,1.4,2.5,2.2,4.3,2.2c1.9,0,3.4-0.7,4.6-2c1.2-1.4,1.7-3.2,1.7-5.7
		c0-2.4-0.6-4.3-1.7-5.6c-1.1-1.4-2.7-2.1-4.6-2.1c-1.8,0-3.3,0.7-4.3,2.1C785.9,184,785.3,185.9,785.3,188.2z"/>
	<path class="st4" d="M807,193.5v3.7c0,1.2-0.3,2.2-0.8,3.1c-0.6,0.9-1.3,1.4-2.2,1.7v-1.5c0.5-0.2,0.9-0.5,1.2-1.2
		c0.3-0.6,0.5-1.2,0.5-1.8v-0.3h-1.5v-3.7H807z"/>
	<path class="st4" d="M831.3,172.2c2.3,0,4.1,0.6,5.5,1.7c1.4,1.1,2.1,2.7,2.1,4.8c0,1.7-0.4,3.1-1.3,4.2c-0.9,1.1-2,1.8-3.6,2.2
		v0.1c1.4,0.2,2.5,0.8,3.2,1.7c0.7,0.9,1.1,2.4,1.2,4.6l0.1,1.5c0.1,2.1,0.4,3.6,1,4.3H837c-0.3-0.5-0.6-2-0.7-4.6
		c-0.1-2.5-0.6-4.1-1.3-5.1c-0.8-0.9-1.8-1.4-3.3-1.4h-9.4v11.1h-2.4v-25H831.3z M831.2,184.1c1.5,0,2.7-0.4,3.8-1.3
		c1.1-0.9,1.6-2.1,1.6-3.5c0-1.6-0.5-2.8-1.4-3.7c-0.9-0.9-2.3-1.3-4-1.3h-8.9v9.8H831.2z"/>
	<path class="st4" d="M849.5,178.6c2.4,0,4.4,0.9,5.8,2.6c1.4,1.7,2.2,4.1,2.2,7v0.5h-13.9c0,2.1,0.5,3.8,1.6,5.1
		c1.1,1.3,2.5,2,4.3,2c3,0,4.9-1.5,5.7-4.6h2.2c-0.5,2.2-1.4,3.9-2.7,4.9c-1.3,1-3,1.6-5.2,1.6c-2.5,0-4.5-0.9-6-2.6
		c-1.5-1.7-2.2-4-2.2-7c0-2.8,0.7-5.2,2.2-6.9S847,178.6,849.5,178.6z M855.2,186.9c0-1.8-0.6-3.3-1.7-4.6c-1.1-1.2-2.4-1.9-4.1-1.9
		c-1.6,0-2.9,0.6-4,1.7c-1,1.2-1.7,2.7-2,4.7H855.2z"/>
	<path class="st4" d="M868.1,178.6c4.4,0,6.6,1.9,6.6,5.8v9.6c0,0.9,0.4,1.3,1.3,1.3c0.3,0,0.5,0,0.7-0.1v1.9
		c-0.4,0.1-0.9,0.1-1.4,0.1c-1,0-1.7-0.3-2.1-0.8c-0.4-0.5-0.5-1.3-0.5-2.3v-0.1h-0.1c-0.8,1.3-1.8,2.3-2.8,2.8
		c-1,0.6-2.3,0.8-3.8,0.8c-1.9,0-3.4-0.5-4.4-1.4c-1.1-0.9-1.6-2.2-1.6-3.9c0-1.2,0.3-2.2,0.8-2.9c0.5-0.7,1.4-1.3,2.5-1.8
		c1.1-0.4,2.9-0.8,5.5-1c1.4-0.1,2.3-0.3,2.6-0.5c0.4-0.2,0.7-0.4,0.8-0.8c0.2-0.3,0.3-0.8,0.3-1.3c0-1.3-0.4-2.3-1.2-2.8
		c-0.8-0.6-2-0.9-3.5-0.9c-3.1,0-4.7,1.4-4.8,4.2h-2.2c0.1-2,0.8-3.5,2.1-4.5C864.1,179.2,865.8,178.6,868.1,178.6z M872.4,187.4
		c-0.2,0.4-1,0.7-2.3,0.9l-2.2,0.3c-2.2,0.3-3.7,0.8-4.5,1.3c-0.8,0.6-1.3,1.4-1.3,2.4c0,1,0.4,1.8,1.1,2.5c0.7,0.7,1.7,1,2.9,1.1
		c1.8,0,3.3-0.5,4.5-1.6s1.8-2.4,1.8-4.1L872.4,187.4L872.4,187.4z"/>
	<path class="st4" d="M885.7,178.6c2,0,3.5,0.5,4.7,1.5s1.8,2.4,1.9,4.3h-2.2c0-1.3-0.5-2.2-1.3-2.9c-0.9-0.7-2-1-3.4-1
		c-1.3,0-2.3,0.3-3.1,0.8c-0.8,0.6-1.2,1.3-1.2,2.3c0,1.5,1.4,2.5,4.1,3.1c2.8,0.6,4.5,1.1,5.1,1.4c0.6,0.3,1.1,0.7,1.5,1.2
		c0.4,0.5,0.7,0.9,0.8,1.4c0.2,0.5,0.2,1,0.2,1.6c0,1.6-0.7,2.9-2,3.9c-1.3,1-3.1,1.5-5.2,1.5c-4.6,0-7-2.1-7.4-6.4h2.2
		c0.1,1.4,0.6,2.6,1.6,3.3c1,0.8,2.2,1.2,3.7,1.2c1.5,0,2.7-0.3,3.6-1c0.9-0.6,1.4-1.5,1.4-2.4c0-0.9-0.3-1.7-1-2.2
		c-0.7-0.5-1.8-0.9-3.2-1.2l-2.3-0.5c-1.8-0.4-3.1-1-3.9-1.7c-0.9-0.7-1.3-1.8-1.3-3.1c0-1.6,0.6-2.8,1.9-3.7
		C882.2,179.1,883.8,178.6,885.7,178.6z"/>
	<path class="st4" d="M903.8,178.6c2.5,0,4.6,0.9,6.2,2.6c1.6,1.8,2.4,4.1,2.4,6.9c0,2.8-0.8,5.1-2.3,6.9s-3.6,2.7-6.2,2.7
		s-4.7-0.9-6.2-2.7c-1.6-1.8-2.3-4.1-2.3-6.9c0-2.8,0.8-5.1,2.3-6.9C899.2,179.5,901.2,178.6,903.8,178.6z M897.5,188.2
		c0,2.2,0.6,4.1,1.8,5.5c1.2,1.5,2.7,2.2,4.5,2.2c1.8,0,3.4-0.7,4.5-2.2c1.2-1.5,1.8-3.3,1.8-5.5c0-2.1-0.6-4-1.7-5.5
		c-1.2-1.5-2.7-2.2-4.6-2.2c-1.9,0-3.4,0.7-4.6,2.2C898.1,184.2,897.5,186,897.5,188.2z"/>
	<path class="st4" d="M923.9,178.6c2.3,0,4,0.6,5,1.7c1,1.1,1.5,2.8,1.5,5.2v11.7h-2.2v-11.3c0-3.6-1.5-5.4-4.6-5.4
		c-1.7,0-3.1,0.6-4.1,1.8c-1,1.2-1.6,2.7-1.6,4.6v10.4h-2.2v-18.1h2.2v3.1h0.1c0.4-1.1,1.2-2,2.2-2.6
		C921.4,179,922.6,178.6,923.9,178.6z"/>
	<path class="st4" d="M937.7,193.5v3.7c0,1.2-0.3,2.2-0.8,3.1c-0.6,0.9-1.3,1.4-2.2,1.7v-1.5c0.5-0.2,0.9-0.5,1.2-1.2
		c0.3-0.6,0.5-1.2,0.5-1.8v-0.3h-1.5v-3.7H937.7z"/>
	<path class="st4" d="M953.2,172.2v25h-2.4v-25H953.2z"/>
	<path class="st4" d="M966.1,178.6c2.3,0,4,0.6,5,1.7c1,1.1,1.5,2.8,1.5,5.2v11.7h-2.2v-11.3c0-3.6-1.5-5.4-4.6-5.4
		c-1.7,0-3.1,0.6-4.1,1.8c-1,1.2-1.6,2.7-1.6,4.6v10.4H958v-18.1h2.2v3.1h0.1c0.4-1.1,1.2-2,2.2-2.6
		C963.6,179,964.8,178.6,966.1,178.6z"/>
	<path class="st4" d="M980,173.7v5.4h3.7v1.9H980v12.3c0,0.8,0.2,1.4,0.5,1.8c0.3,0.3,0.8,0.5,1.6,0.5c0.4,0,1,0,1.6-0.1v1.9
		c-0.9,0-1.6,0.1-2,0.1c-1.6,0-2.6-0.3-3.1-0.9s-0.8-1.6-0.8-3V181h-3.1v-1.9h3.1v-5.4H980z"/>
	<path class="st4" d="M993.2,178.6c2.4,0,4.4,0.9,5.8,2.6c1.4,1.7,2.2,4.1,2.2,7v0.5h-13.9c0,2.1,0.5,3.8,1.6,5.1
		c1.1,1.3,2.5,2,4.3,2c3,0,4.9-1.5,5.7-4.6h2.2c-0.5,2.2-1.4,3.9-2.7,4.9c-1.3,1-3,1.6-5.2,1.6c-2.5,0-4.5-0.9-6-2.6
		c-1.5-1.7-2.2-4-2.2-7c0-2.8,0.7-5.2,2.2-6.9S990.7,178.6,993.2,178.6z M998.9,186.9c0-1.8-0.6-3.3-1.7-4.6
		c-1.1-1.2-2.4-1.9-4.1-1.9c-1.6,0-2.9,0.6-4,1.7c-1,1.2-1.7,2.7-2,4.7H998.9z"/>
	<path class="st4" d="M1013.6,181.1h-0.4c-1.8,0-3.4,0.6-4.6,1.8c-1.2,1.2-1.8,2.8-1.8,4.7v9.6h-2.2v-18.1h2v4.2h0.1
		c0.5-1.4,1.4-2.6,2.5-3.3c1.1-0.8,2.4-1.2,3.9-1.2h0.5V181.1z"/>
	<path class="st4" d="M1022.7,178.6c4.4,0,6.6,1.9,6.6,5.8v9.6c0,0.9,0.4,1.3,1.3,1.3c0.3,0,0.5,0,0.7-0.1v1.9
		c-0.4,0.1-0.9,0.1-1.4,0.1c-1,0-1.7-0.3-2.1-0.8c-0.4-0.5-0.5-1.3-0.5-2.3v-0.1h-0.1c-0.8,1.3-1.8,2.3-2.8,2.8
		c-1,0.6-2.3,0.8-3.8,0.8c-1.9,0-3.4-0.5-4.4-1.4c-1.1-0.9-1.6-2.2-1.6-3.9c0-1.2,0.3-2.2,0.8-2.9c0.5-0.7,1.4-1.3,2.5-1.8
		c1.1-0.4,2.9-0.8,5.5-1c1.4-0.1,2.3-0.3,2.6-0.5c0.4-0.2,0.7-0.4,0.8-0.8c0.2-0.3,0.3-0.8,0.3-1.3c0-1.3-0.4-2.3-1.2-2.8
		c-0.8-0.6-2-0.9-3.5-0.9c-3.1,0-4.7,1.4-4.8,4.2h-2.2c0.1-2,0.8-3.5,2.1-4.5C1018.7,179.2,1020.4,178.6,1022.7,178.6z M1027,187.4
		c-0.2,0.4-1,0.7-2.3,0.9l-2.2,0.3c-2.2,0.3-3.7,0.8-4.5,1.3c-0.8,0.6-1.3,1.4-1.3,2.4c0,1,0.4,1.8,1.1,2.5c0.7,0.7,1.7,1,2.9,1.1
		c1.8,0,3.3-0.5,4.5-1.6s1.8-2.4,1.8-4.1L1027,187.4L1027,187.4z"/>
	<path class="st4" d="M1041.6,178.6c2.1,0,3.8,0.6,5.1,1.7c1.2,1.1,2,2.6,2.2,4.5h-2.2c-0.6-2.9-2.3-4.3-5.1-4.3
		c-1.9,0-3.4,0.7-4.6,2.2c-1.2,1.5-1.8,3.3-1.8,5.5c0,2.2,0.6,4.1,1.8,5.5c1.2,1.4,2.7,2.2,4.5,2.2c1.4,0,2.5-0.5,3.5-1.5
		c1-1,1.6-2.2,1.7-3.7h2.2c-0.3,2.2-1.1,3.9-2.4,5.2c-1.3,1.2-3,1.8-5,1.8c-2.6,0-4.7-0.9-6.2-2.7c-1.6-1.8-2.3-4.1-2.3-6.9
		c0-2.8,0.8-5.1,2.3-6.9C1036.9,179.5,1039,178.6,1041.6,178.6z"/>
	<path class="st4" d="M1056.1,173.7v5.4h3.7v1.9h-3.7v12.3c0,0.8,0.2,1.4,0.5,1.8c0.3,0.3,0.8,0.5,1.6,0.5c0.4,0,1,0,1.6-0.1v1.9
		c-0.9,0-1.6,0.1-2,0.1c-1.6,0-2.6-0.3-3.1-0.9s-0.8-1.6-0.8-3V181h-3.1v-1.9h3.1v-5.4H1056.1z"/>
	<path class="st4" d="M1066,193.5v3.7c0,1.2-0.3,2.2-0.8,3.1c-0.6,0.9-1.3,1.4-2.2,1.7v-1.5c0.5-0.2,0.9-0.5,1.2-1.2
		c0.3-0.6,0.5-1.2,0.5-1.8v-0.3h-1.5v-3.7H1066z"/>
	<path class="st4" d="M1081.2,172.2v23h14v2h-16.4v-25H1081.2z"/>
	<path class="st4" d="M1105.3,178.6c2.4,0,4.4,0.9,5.8,2.6c1.4,1.7,2.2,4.1,2.2,7v0.5h-13.9c0,2.1,0.5,3.8,1.6,5.1
		c1.1,1.3,2.5,2,4.3,2c3,0,4.9-1.5,5.7-4.6h2.2c-0.5,2.2-1.4,3.9-2.7,4.9c-1.3,1-3,1.6-5.2,1.6c-2.5,0-4.5-0.9-6-2.6
		c-1.5-1.7-2.2-4-2.2-7c0-2.8,0.7-5.2,2.2-6.9S1102.8,178.6,1105.3,178.6z M1111,186.9c0-1.8-0.6-3.3-1.7-4.6
		c-1.1-1.2-2.4-1.9-4.1-1.9c-1.6,0-2.9,0.6-4,1.7c-1,1.2-1.7,2.7-2,4.7H1111z"/>
	<path class="st4" d="M1123.9,178.6c4.4,0,6.6,1.9,6.6,5.8v9.6c0,0.9,0.4,1.3,1.3,1.3c0.3,0,0.5,0,0.7-0.1v1.9
		c-0.4,0.1-0.9,0.1-1.4,0.1c-1,0-1.7-0.3-2.1-0.8c-0.4-0.5-0.5-1.3-0.5-2.3v-0.1h-0.1c-0.8,1.3-1.8,2.3-2.8,2.8
		c-1,0.6-2.3,0.8-3.8,0.8c-1.9,0-3.4-0.5-4.4-1.4c-1.1-0.9-1.6-2.2-1.6-3.9c0-1.2,0.3-2.2,0.8-2.9c0.5-0.7,1.4-1.3,2.5-1.8
		c1.1-0.4,2.9-0.8,5.5-1c1.4-0.1,2.3-0.3,2.6-0.5c0.4-0.2,0.7-0.4,0.8-0.8c0.2-0.3,0.3-0.8,0.3-1.3c0-1.3-0.4-2.3-1.2-2.8
		c-0.8-0.6-2-0.9-3.5-0.9c-3.1,0-4.7,1.4-4.8,4.2h-2.2c0.1-2,0.8-3.5,2.1-4.5C1119.9,179.2,1121.6,178.6,1123.9,178.6z
		 M1128.2,187.4c-0.2,0.4-1,0.7-2.3,0.9l-2.2,0.3c-2.2,0.3-3.7,0.8-4.5,1.3c-0.8,0.6-1.3,1.4-1.3,2.4c0,1,0.4,1.8,1.1,2.5
		c0.7,0.7,1.7,1,2.9,1.1c1.8,0,3.3-0.5,4.5-1.6s1.8-2.4,1.8-4.1L1128.2,187.4L1128.2,187.4z"/>
	<path class="st4" d="M1144.4,181.1h-0.4c-1.8,0-3.4,0.6-4.6,1.8c-1.2,1.2-1.8,2.8-1.8,4.7v9.6h-2.2v-18.1h2v4.2h0.1
		c0.5-1.4,1.4-2.6,2.5-3.3c1.1-0.8,2.4-1.2,3.9-1.2h0.5V181.1z"/>
	<path class="st4" d="M1155.4,178.6c2.3,0,4,0.6,5,1.7c1,1.1,1.5,2.8,1.5,5.2v11.7h-2.2v-11.3c0-3.6-1.5-5.4-4.6-5.4
		c-1.7,0-3.1,0.6-4.1,1.8c-1,1.2-1.6,2.7-1.6,4.6v10.4h-2.2v-18.1h2.2v3.1h0.1c0.4-1.1,1.2-2,2.2-2.6
		C1152.9,179,1154,178.6,1155.4,178.6z"/>
</g>
<g>
	<path class="st10" d="M23.2,318.2H1563c85,0,154.6-69.6,154.6-154.6l0,0C1717.6,78.6,1648,9,1563,9H166.5
		C81.5,9,11.9,78.6,11.9,163.6l0,0c0,41.1,0,78.7,0,106.5"/>
	<polygon class="st11" points="24,262.9 0,262.9 12,283.7 	"/>
	<circle class="st12" cx="12.8" cy="318.1" r="8.8"/>
	<circle class="st13" cx="12.8" cy="318.1" r="4.1"/>
	<g>
		<circle class="st14" cx="363.2" cy="318.1" r="8.8"/>
		<circle class="st13" cx="363.2" cy="318.1" r="4.1"/>
	</g>
	<g>
		<circle class="st14" cx="714.6" cy="318.1" r="8.8"/>
		<circle class="st13" cx="714.6" cy="318.1" r="4.1"/>
	</g>
	<g>
		<circle class="st14" cx="1065.4" cy="318.1" r="8.8"/>
		<circle class="st13" cx="1065.4" cy="318.1" r="4.1"/>
	</g>
	<g>
		<circle class="st14" cx="1426" cy="318.1" r="8.8"/>
		<circle class="st13" cx="1426" cy="318.1" r="4.1"/>
	</g>
	<g>
		<polygon class="st11" points="37.4,311 37.4,325.2 49.7,318.1 		"/>
		<polygon class="st11" points="63.9,311.1 63.9,325.3 76.2,318.2 		"/>
		<polygon class="st11" points="90.4,311.1 90.4,325.3 102.7,318.2 		"/>
		<polygon class="st11" points="116.9,311.1 116.9,325.3 129.2,318.2 		"/>
	</g>
	<g>
		<polygon class="st11" points="391.4,311 391.4,325.2 403.7,318.1 		"/>
		<polygon class="st11" points="417.9,311.1 417.9,325.3 430.2,318.2 		"/>
		<polygon class="st11" points="444.4,311.1 444.4,325.3 456.7,318.2 		"/>
		<polygon class="st11" points="470.9,311.1 470.9,325.3 483.2,318.2 		"/>
	</g>
	<g>
		<polygon class="st11" points="743.4,311 743.4,325.2 755.7,318.1 		"/>
		<polygon class="st11" points="769.9,311.1 769.9,325.3 782.2,318.2 		"/>
		<polygon class="st11" points="796.4,311.1 796.4,325.3 808.7,318.2 		"/>
		<polygon class="st11" points="822.9,311.1 822.9,325.3 835.2,318.2 		"/>
	</g>
	<g>
		<polygon class="st11" points="1095.4,311 1095.4,325.2 1107.7,318.1 		"/>
		<polygon class="st11" points="1121.9,311.1 1121.9,325.3 1134.2,318.2 		"/>
		<polygon class="st11" points="1148.4,311.1 1148.4,325.3 1160.7,318.2 		"/>
		<polygon class="st11" points="1174.9,311.1 1174.9,325.3 1187.2,318.2 		"/>
	</g>
	<g>
		<polygon class="st11" points="1455.7,311 1455.7,325.2 1468,318.1 		"/>
		<polygon class="st11" points="1482.2,311.1 1482.2,325.3 1494.5,318.2 		"/>
		<polygon class="st11" points="1508.7,311.1 1508.7,325.3 1521,318.2 		"/>
		<polygon class="st11" points="1535.2,311.1 1535.2,325.3 1547.5,318.2 		"/>
	</g>
</g>
<g>
	
		<image style="overflow:visible;" width="47" height="46" id="_x38_M0rLB_1_" xlink:href="89C8D4E7270FC7C9.png"  transform="matrix(1.8936 0 0 1.8936 362.6667 519.198)">
	</image>
</g>
<rect x="468.3" y="528.7" class="st1" width="205.6" height="70.4"/>
<text transform="matrix(1 0 0 1 468.2745 551.5332)"><tspan x="0" y="0" class="st4 st15 st16">Client </tspan><tspan x="0" y="38.4" class="st4 st15 st16">Expansion</tspan></text>
<rect x="468.3" y="642.7" class="st1" width="205.6" height="70.4"/>
<text transform="matrix(1 0 0 1 468.2745 665.5332)"><tspan x="0" y="0" class="st4 st15 st16">Buyer</tspan><tspan x="0" y="38.4" class="st4 st15 st16">Network</tspan></text>
<line class="st17" x1="365.9" y1="619.2" x2="657" y2="619.2"/>
<rect x="722.3" y="525.7" class="st1" width="287.6" height="34.4"/>
<text transform="matrix(1 0 0 1 722.2745 548.5332)" class="st4 st15 st16">Select Client Goals</text>
<line class="st17" x1="719.9" y1="576.2" x2="1011" y2="576.2"/>
<rect x="722.3" y="596.7" class="st1" width="285.6" height="34.4"/>
<text transform="matrix(1 0 0 1 722.2745 619.5332)" class="st4 st15 st16">Spark Cards</text>
<rect x="722.3" y="664.7" class="st1" width="286.6" height="34.4"/>
<text transform="matrix(1 0 0 1 722.2745 687.5332)" class="st4 st15 st16">Sparks to Ideas</text>
<line class="st17" x1="719.9" y1="647.2" x2="1011" y2="647.2"/>
<rect x="19.3" y="525.7" class="st1" width="287.6" height="34.4"/>
<text transform="matrix(1 0 0 1 19.2745 548.5332)" class="st4 st15 st16">Inspirational Quote</text>
<line class="st17" x1="16.9" y1="576.2" x2="308" y2="576.2"/>
<rect x="19.3" y="596.7" class="st1" width="306.6" height="34.4"/>
<text transform="matrix(1 0 0 1 19.2745 619.5332)" class="st4 st15 st16">Choose your Garage</text>
<rect x="19.3" y="664.7" class="st1" width="286.6" height="34.4"/>
<text transform="matrix(1 0 0 1 19.2745 687.5332)" class="st4 st15 st16">Dashboard</text>
<line class="st17" x1="16.9" y1="647.2" x2="308" y2="647.2"/>
<rect x="1070.3" y="525.7" class="st1" width="287.6" height="34.4"/>
<text transform="matrix(1 0 0 1 1070.2745 548.5332)" class="st4 st15 st16">Team Workspace</text>
<line class="st17" x1="1067.9" y1="576.2" x2="1359" y2="576.2"/>
<rect x="1070.3" y="596.7" class="st1" width="285.6" height="34.4"/>
<text transform="matrix(1 0 0 1 1070.2745 619.5332)" class="st4 st15 st16">Evaluate</text>
<rect x="1070.3" y="664.7" class="st1" width="286.6" height="34.4"/>
<text transform="matrix(1 0 0 1 1070.2745 687.5332)" class="st4 st15 st16">Promote</text>
<line class="st17" x1="1067.9" y1="647.2" x2="1359" y2="647.2"/>
<rect x="1429.3" y="525.7" class="st1" width="287.6" height="34.4"/>
<text transform="matrix(1 0 0 1 1429.2745 548.5332)" class="st4 st15 st16">Value Proposition</text>
<line class="st17" x1="1426.9" y1="576.2" x2="1718" y2="576.2"/>
<rect x="1429.3" y="596.7" class="st1" width="285.6" height="34.4"/>
<text transform="matrix(1 0 0 1 1429.2745 619.5332)" class="st4 st15 st16">Opportunity Brief</text>
</svg>
