<?xml version="1.0" encoding="utf-8"?>
<!-- Generator: Adobe Illustrator 19.2.1, SVG Export Plug-In . SVG Version: 6.00 Build 0)  -->
<svg version="1.1" id="Layer_1" xmlns="http://www.w3.org/2000/svg" xmlns:xlink="http://www.w3.org/1999/xlink" x="0px" y="0px"
	 viewBox="0 0 2457.2 520.1" style="enable-background:new 0 0 2457.2 520.1;" xml:space="preserve">
<style type="text/css">
	.st0{clip-path:url(#SVGID_2_);}
	.st1{fill:url(#SVGID_3_);}
	.st2{opacity:0.35;}
	.st3{fill:#231F20;}
	.st4{font-family:'HelvNeueBoldforIBM';}
	.st5{font-size:42px;}
	.st6{fill:#FFFFFF;}
	.st7{fill:url(#SVGID_4_);}
	.st8{clip-path:url(#SVGID_6_);}
	.st9{fill:url(#SVGID_7_);}
	.st10{clip-path:url(#SVGID_9_);}
	.st11{fill:url(#SVGID_10_);}
	.st12{clip-path:url(#SVGID_12_);}
	.st13{fill:url(#SVGID_13_);}
	.st14{clip-path:url(#SVGID_15_);}
	.st15{fill:url(#SVGID_16_);}
	.st16{clip-path:url(#SVGID_18_);}
	.st17{fill:url(#SVGID_19_);}
	.st18{fill:none;stroke:#5296D1;stroke-width:2;stroke-miterlimit:10;}
	.st19{fill:#5296D1;}
	.st20{fill:none;stroke:#5296D1;stroke-width:4;stroke-miterlimit:10;}
	.st21{fill:#09B5A1;}
	.st22{fill:#FFFFFF;stroke:#5296D1;stroke-width:4;stroke-miterlimit:10;}
	.st23{fill:#2BB29F;}
	.st24{font-size:38px;}
</style>
<title>ideagarage_experience</title>
<g>
	<defs>
		<polygon id="SVGID_1_" points="31.3,18.8 324.4,18.8 324.4,179.2 48.6,179.2 31.3,194.2 31.3,179.2 		"/>
	</defs>
	<clipPath id="SVGID_2_">
		<use xlink:href="#SVGID_1_"  style="overflow:visible;"/>
	</clipPath>
	<g class="st0">
		
			<linearGradient id="SVGID_3_" gradientUnits="userSpaceOnUse" x1="-66.1721" y1="660.904" x2="-65.4621" y2="660.904" gradientTransform="matrix(-653.49 457.58 457.58 653.49 -345241.7812 -401803.625)">
			<stop  offset="0" style="stop-color:#90BF3F"/>
			<stop  offset="1.000000e-02" style="stop-color:#90BF3F"/>
			<stop  offset="0.62" style="stop-color:#3CB09B"/>
			<stop  offset="1" style="stop-color:#0BB4D7"/>
		</linearGradient>
		<polygon class="st1" points="574.4,37.7 97.5,306.5 -203.7,-89.6 235.5,-311.3 		"/>
	</g>
</g>
<g class="st2">
	<text transform="matrix(1 0 0 1 62.7373 112.3905)" class="st3 st4 st5">Onbo</text>
	<text transform="matrix(1 0 0 1 168.6973 112.3905)" class="st3 st4 st5">a</text>
	<text transform="matrix(1 0 0 1 192.5573 112.3905)" class="st3 st4 st5">r</text>
	<text transform="matrix(1 0 0 1 207.8473 112.3905)" class="st3 st4 st5">di</text>
	<text transform="matrix(1 0 0 1 242.9973 112.3905)" class="st3 st4 st5">n</text>
	<text transform="matrix(1 0 0 1 267.0273 112.3905)" class="st3 st4 st5">g</text>
</g>
<text transform="matrix(1 0 0 1 62.0173 111.6705)" class="st6 st4 st5">Onbo</text>
<text transform="matrix(1 0 0 1 167.9773 111.6705)" class="st6 st4 st5">a</text>
<text transform="matrix(1 0 0 1 191.8373 111.6705)" class="st6 st4 st5">r</text>
<text transform="matrix(1 0 0 1 207.1273 111.6705)" class="st6 st4 st5">di</text>
<text transform="matrix(1 0 0 1 242.2773 111.6705)" class="st6 st4 st5">n</text>
<text transform="matrix(1 0 0 1 266.3073 111.6705)" class="st6 st4 st5">g</text>
<linearGradient id="SVGID_4_" gradientUnits="userSpaceOnUse" x1="184.9248" y1="1348.1481" x2="419.4499" y2="1113.623" gradientTransform="matrix(1 0 0 1 222.2 -1128)">
	<stop  offset="0" style="stop-color:#C5E8ED"/>
	<stop  offset="1" style="stop-color:#04B5D8"/>
</linearGradient>
<polygon class="st7" points="381.7,18.8 674.8,18.8 674.8,179.2 400.1,179.2 381.7,194.8 381.7,179.2 "/>
<g class="st2">
	<text transform="matrix(1 0 0 1 471.6571 113.3905)" class="st3 st4 st5">Clie</text>
	<text transform="matrix(1 0 0 1 545.6971 113.3905)" class="st3 st4 st5">n</text>
	<text transform="matrix(1 0 0 1 569.3071 113.3905)" class="st3 st4 st5">t </text>
</g>
<text transform="matrix(1 0 0 1 470.6573 111.6705)" class="st6 st4 st5">Clie</text>
<text transform="matrix(1 0 0 1 544.6973 111.6705)" class="st6 st4 st5">n</text>
<text transform="matrix(1 0 0 1 568.3073 111.6705)" class="st6 st4 st5">t </text>
<g>
	<defs>
		<polygon id="SVGID_5_" points="733.1,18.5 1030.6,18.5 1030.6,179.2 751,179.2 733.1,193.6 733.1,179.2 		"/>
	</defs>
	<clipPath id="SVGID_6_">
		<use xlink:href="#SVGID_5_"  style="overflow:visible;"/>
	</clipPath>
	<g class="st8">
		
			<linearGradient id="SVGID_7_" gradientUnits="userSpaceOnUse" x1="-66.8821" y1="661.4244" x2="-66.1627" y2="661.4244" gradientTransform="matrix(-653.49 457.58 457.58 653.49 -345241.7812 -401803.625)">
			<stop  offset="0" style="stop-color:#F1C22B"/>
			<stop  offset="1.000000e-02" style="stop-color:#F1C22B"/>
			<stop  offset="0.53" style="stop-color:#BFC035"/>
			<stop  offset="0.99" style="stop-color:#91C03E"/>
			<stop  offset="1" style="stop-color:#91C03E"/>
		</linearGradient>
		<polygon class="st9" points="1276.7,56.8 788.4,306.2 487,-70.5 945.2,-327.8 		"/>
	</g>
</g>
<g class="st2">
	<text transform="matrix(1 0 0 1 812.9673 112.3905)" class="st3 st4 st5">S</text>
	<text transform="matrix(1 0 0 1 840.0173 112.3905)" class="st3 st4 st5">p</text>
	<text transform="matrix(1 0 0 1 865.0073 112.3905)" class="st3 st4 st5">a</text>
	<text transform="matrix(1 0 0 1 888.8572 112.3905)" class="st3 st4 st5">r</text>
	<text transform="matrix(1 0 0 1 905.5773 112.3905)" class="st3 st4 st5">k</text>
	<text transform="matrix(1 0 0 1 928.3773 112.3905)" class="st3 st4 st5">s</text>
</g>
<text transform="matrix(1 0 0 1 812.2473 111.6705)" class="st6 st4 st5">S</text>
<text transform="matrix(1 0 0 1 839.2973 111.6705)" class="st6 st4 st5">p</text>
<text transform="matrix(1 0 0 1 864.2873 111.6705)" class="st6 st4 st5">a</text>
<text transform="matrix(1 0 0 1 888.1373 111.6705)" class="st6 st4 st5">r</text>
<text transform="matrix(1 0 0 1 904.8574 111.6705)" class="st6 st4 st5">k</text>
<text transform="matrix(1 0 0 1 927.6573 111.6705)" class="st6 st4 st5">s</text>
<g>
	<defs>
		<polygon id="SVGID_8_" points="1083.9,18.5 1377,18.5 1377,179.2 1101.8,179.2 1083.9,193.6 1083.9,179.2 		"/>
	</defs>
	<clipPath id="SVGID_9_">
		<use xlink:href="#SVGID_8_"  style="overflow:visible;"/>
	</clipPath>
	<g class="st10">
		
			<linearGradient id="SVGID_10_" gradientUnits="userSpaceOnUse" x1="-66.686" y1="661.5423" x2="-66.056" y2="661.5423" gradientTransform="matrix(-504.3 720.21 720.21 504.3 -508691.5625 -285819.125)">
			<stop  offset="0" style="stop-color:#EE3E3C"/>
			<stop  offset="1.000000e-02" style="stop-color:#EE3E3C"/>
			<stop  offset="0.49" style="stop-color:#F27040"/>
			<stop  offset="0.99" style="stop-color:#EEBF28"/>
			<stop  offset="1" style="stop-color:#EEBF28"/>
		</linearGradient>
		<polygon class="st11" points="1619.5,-70.5 1254.8,353.9 841.4,56.8 1180.3,-292.2 		"/>
	</g>
</g>
<g class="st2">
	<text transform="matrix(1 0 0 1 1191.9274 112.3905)" class="st3 st4 st5">I</text>
	<text transform="matrix(1 0 0 1 1204.1473 112.3905)" class="st3 st4 st5">dea</text>
</g>
<text transform="matrix(1 0 0 1 1191.2074 111.6705)" class="st6 st4 st5">I</text>
<text transform="matrix(1 0 0 1 1203.4274 111.6705)" class="st6 st4 st5">dea</text>
<g>
	<defs>
		<polygon id="SVGID_11_" points="1444.5,18.5 1737.6,18.5 1737.6,179.2 1462.3,179.2 1444.5,193.6 1444.5,179.2 		"/>
	</defs>
	<clipPath id="SVGID_12_">
		<use xlink:href="#SVGID_11_"  style="overflow:visible;"/>
	</clipPath>
	<g class="st12">
		
			<linearGradient id="SVGID_13_" gradientUnits="userSpaceOnUse" x1="-68.2374" y1="661.9909" x2="-67.5074" y2="661.9909" gradientTransform="matrix(-631.98 230.02 230.02 631.98 -193575.2656 -402759.4375)">
			<stop  offset="0" style="stop-color:#C71C8C"/>
			<stop  offset="1.000000e-02" style="stop-color:#C71C8C"/>
			<stop  offset="0.59" style="stop-color:#CC2543"/>
			<stop  offset="0.99" style="stop-color:#EE3E3C"/>
			<stop  offset="1" style="stop-color:#EE3E3C"/>
		</linearGradient>
		<polygon class="st13" points="1903.4,135.7 1456.8,284.5 1278.6,-149.4 1703.3,-260.8 		"/>
	</g>
</g>
<g class="st2">
	<text transform="matrix(1 0 0 1 1481.9873 112.3905)" class="st3 st4 st5">P</text>
	<text transform="matrix(1 0 0 1 1508.7373 112.3905)" class="st3 st4 st5">r</text>
	<text transform="matrix(1 0 0 1 1524.0273 112.3905)" class="st3 st4 st5">oposition</text>
</g>
<text transform="matrix(1 0 0 1 1481.2673 111.6705)" class="st6 st4 st5">P</text>
<text transform="matrix(1 0 0 1 1508.0173 111.6705)" class="st6 st4 st5">r</text>
<text transform="matrix(1 0 0 1 1523.3074 111.6705)" class="st6 st4 st5">oposition</text>
<g>
	<defs>
		<polygon id="SVGID_14_" points="1795.1,18.5 2088.1,18.5 2088.1,179.2 1812.8,179.2 1795.1,193.5 1795.1,179.2 		"/>
	</defs>
	<clipPath id="SVGID_15_">
		<use xlink:href="#SVGID_14_"  style="overflow:visible;"/>
	</clipPath>
	<g class="st14">
		
			<linearGradient id="SVGID_16_" gradientUnits="userSpaceOnUse" x1="-65.9533" y1="658.1957" x2="-65.2433" y2="658.1957" gradientTransform="matrix(653.49 -457.58 -457.58 -653.49 345988 400100)">
			<stop  offset="0" style="stop-color:#64256F"/>
			<stop  offset="1.000000e-02" style="stop-color:#64256F"/>
			<stop  offset="0.53" style="stop-color:#3F3474"/>
			<stop  offset="1" style="stop-color:#223870"/>
		</linearGradient>
		<polygon class="st15" points="1552.5,-70.5 1991.7,-292.2 2330.7,56.8 1864.8,314.5 		"/>
	</g>
</g>
<g class="st2">
	<text transform="matrix(1 0 0 1 1856.1675 112.3905)" class="st3 st4 st5">P</text>
	<text transform="matrix(1 0 0 1 1882.9175 112.3905)" class="st3 st4 st5">r</text>
	<text transform="matrix(1 0 0 1 1898.2075 112.3905)" class="st3 st4 st5">opo</text>
	<text transform="matrix(1 0 0 1 1972.6775 112.3905)" class="st3 st4 st5">s</text>
	<text transform="matrix(1 0 0 1 1994.7676 112.3905)" class="st3 st4 st5">a</text>
	<text transform="matrix(1 0 0 1 2018.5376 112.3905)" class="st3 st4 st5">l</text>
</g>
<text transform="matrix(1 0 0 1 1855.4473 111.6705)" class="st6 st4 st5">P</text>
<text transform="matrix(1 0 0 1 1882.1973 111.6705)" class="st6 st4 st5">r</text>
<text transform="matrix(1 0 0 1 1897.4873 111.6705)" class="st6 st4 st5">opo</text>
<text transform="matrix(1 0 0 1 1971.9573 111.6705)" class="st6 st4 st5">s</text>
<text transform="matrix(1 0 0 1 1994.0474 111.6705)" class="st6 st4 st5">a</text>
<text transform="matrix(1 0 0 1 2017.8174 111.6705)" class="st6 st4 st5">l</text>
<g>
	<defs>
		<polygon id="SVGID_17_" points="2146.6,18.2 2439.7,18.2 2439.7,179.2 2164.4,179.2 2146.6,193.6 2146.6,179.2 		"/>
	</defs>
	<clipPath id="SVGID_18_">
		<use xlink:href="#SVGID_17_"  style="overflow:visible;"/>
	</clipPath>
	<g class="st16">
		
			<linearGradient id="SVGID_19_" gradientUnits="userSpaceOnUse" x1="-65.6333" y1="657.955" x2="-64.8533" y2="657.955" gradientTransform="matrix(653.49 -457.58 -457.58 -653.49 345988 400100)">
			<stop  offset="0" style="stop-color:#223870"/>
			<stop  offset="1.000000e-02" style="stop-color:#223870"/>
			<stop  offset="0.53" style="stop-color:#3474BA"/>
			<stop  offset="1" style="stop-color:#1092C4"/>
		</linearGradient>
		<polygon class="st17" points="1852,-84.1 2448.2,-324.8 2534,187.2 2190.9,264.9 		"/>
	</g>
</g>
<g class="st2">
	<text transform="matrix(1 0 0 1 2222.5173 112.3905)" class="st3 st4 st5">E</text>
	<text transform="matrix(1 0 0 1 2249.6472 112.3905)" class="st3 st4 st5">n</text>
	<text transform="matrix(1 0 0 1 2273.6772 112.3905)" class="st3 st4 st5">ga</text>
	<text transform="matrix(1 0 0 1 2321.7173 112.3905)" class="st3 st4 st5">g</text>
	<text transform="matrix(1 0 0 1 2347.0073 112.3905)" class="st3 st4 st5">e</text>
</g>
<text transform="matrix(1 0 0 1 2221.7974 111.6705)" class="st6 st4 st5">E</text>
<text transform="matrix(1 0 0 1 2248.9272 111.6705)" class="st6 st4 st5">n</text>
<text transform="matrix(1 0 0 1 2272.9573 111.6705)" class="st6 st4 st5">ga</text>
<text transform="matrix(1 0 0 1 2320.9973 111.6705)" class="st6 st4 st5">g</text>
<text transform="matrix(1 0 0 1 2346.2874 111.6705)" class="st6 st4 st5">e</text>
<path class="st18" d="M41.7,209.9h2251.4c85,0,154.6,69.6,154.6,154.6l0,0c0,85-69.6,154.6-154.6,154.6H185
	c-85,0-154.6-69.6-154.6-154.6l0,0V258"/>
<polygon class="st19" points="42.5,265.2 18.5,265.2 30.5,244.4 "/>
<circle class="st20" cx="31.3" cy="210" r="8.8"/>
<circle class="st21" cx="31.3" cy="210" r="4.1"/>
<circle class="st22" cx="381.7" cy="210" r="8.8"/>
<circle class="st21" cx="381.7" cy="210" r="4.1"/>
<circle class="st22" cx="733.1" cy="210" r="8.8"/>
<circle class="st21" cx="733.1" cy="210" r="4.1"/>
<circle class="st22" cx="1083.9" cy="210" r="8.8"/>
<circle class="st21" cx="1083.9" cy="210" r="4.1"/>
<circle class="st22" cx="1444.5" cy="210" r="8.8"/>
<circle class="st21" cx="1444.5" cy="210" r="4.1"/>
<circle class="st22" cx="1794.1" cy="210" r="8.8"/>
<circle class="st21" cx="1794.1" cy="210" r="4.1"/>
<circle class="st22" cx="2146.6" cy="210" r="8.8"/>
<circle class="st21" cx="2146.6" cy="210" r="4.1"/>
<image style="overflow:visible;enable-background:new    ;" width="208" height="196" xlink:href="watson.png"  transform="matrix(0.66 0 0 0.66 1138.4774 336.1305)">
</image>
<text transform="matrix(1 0 0 1 1027.8873 311.4706)" class="st23 st4 st24">S</text>
<text transform="matrix(1 0 0 1 1052.3573 311.4706)" class="st23 st4 st24">ell</text>
<text transform="matrix(1 0 0 1 1092.2974 311.4706)" class="st23 st4 st24">F</text>
<text transform="matrix(1 0 0 1 1113.3074 311.4706)" class="st23 st4 st24">o</text>
<text transform="matrix(1 0 0 1 1135.6874 311.4706)" class="st23 st4 st24">r</text>
<text transform="matrix(1 0 0 1 1151.7673 311.4706)" class="st23 st4 st24">w</text>
<text transform="matrix(1 0 0 1 1181.6373 311.4706)" class="st23 st4 st24">a</text>
<text transform="matrix(1 0 0 1 1203.2173 311.4706)" class="st23 st4 st24">r</text>
<text transform="matrix(1 0 0 1 1217.0474 311.4706)" class="st23 st4 st24">d + </text>
<text transform="matrix(1 0 0 1 1279.9374 311.4706)" class="st23 st4 st24">W</text>
<text transform="matrix(1 0 0 1 1313.6473 311.4706)" class="st23 st4 st24">a</text>
<text transform="matrix(1 0 0 1 1335.0374 311.4706)" class="st23 st4 st24">t</text>
<text transform="matrix(1 0 0 1 1348.6073 311.4706)" class="st23 st4 st24">s</text>
<text transform="matrix(1 0 0 1 1368.2473 311.4706)" class="st23 st4 st24">on</text>
<polygon class="st19" points="55.9,217.1 55.9,203 68.2,210 "/>
<polygon class="st19" points="82.4,217 82.4,202.9 94.7,209.9 "/>
<polygon class="st19" points="108.9,217 108.9,202.9 121.2,209.9 "/>
<polygon class="st19" points="135.4,217 135.4,202.9 147.7,209.9 "/>
<polygon class="st19" points="409.9,217.1 409.9,203 422.2,210 "/>
<polygon class="st19" points="436.4,217 436.4,202.9 448.7,209.9 "/>
<polygon class="st19" points="462.9,217 462.9,202.9 475.2,209.9 "/>
<polygon class="st19" points="489.4,217 489.4,202.9 501.7,209.9 "/>
<polygon class="st19" points="761.9,217.1 761.9,203 774.2,210 "/>
<polygon class="st19" points="788.4,217 788.4,202.9 800.7,209.9 "/>
<polygon class="st19" points="814.9,217 814.9,202.9 827.2,209.9 "/>
<polygon class="st19" points="841.4,217 841.4,202.9 853.7,209.9 "/>
<polygon class="st19" points="1113.9,217.1 1113.9,203 1126.2,210 "/>
<polygon class="st19" points="1140.4,217 1140.4,202.9 1152.7,209.9 "/>
<polygon class="st19" points="1166.9,217 1166.9,202.9 1179.2,209.9 "/>
<polygon class="st19" points="1193.4,217 1193.4,202.9 1205.7,209.9 "/>
<polygon class="st19" points="1474.2,217.1 1474.2,203 1486.5,210 "/>
<polygon class="st19" points="1500.7,217 1500.7,202.9 1513,209.9 "/>
<polygon class="st19" points="1527.2,217 1527.2,202.9 1539.5,209.9 "/>
<polygon class="st19" points="1553.7,217 1553.7,202.9 1566,209.9 "/>
<polygon class="st19" points="1823.4,217.1 1823.4,203 1835.7,210 "/>
<polygon class="st19" points="1849.9,217 1849.9,202.9 1862.2,209.9 "/>
<polygon class="st19" points="1876.4,217 1876.4,202.9 1888.7,209.9 "/>
<polygon class="st19" points="1902.9,217 1902.9,202.9 1915.2,209.9 "/>
<polygon class="st19" points="2176.7,217.1 2176.7,203 2189,210 "/>
<polygon class="st19" points="2203.2,217 2203.2,202.9 2215.5,209.9 "/>
<polygon class="st19" points="2229.7,217 2229.7,202.9 2242,209.9 "/>
<polygon class="st19" points="2256.2,217 2256.2,202.9 2268.5,209.9 "/>
</svg>
