<?xml version="1.0" encoding="utf-8"?>
<!-- Generator: Adobe Illustrator 19.2.1, SVG Export Plug-In . SVG Version: 6.00 Build 0)  -->
<svg version="1.1" id="Layer_1" xmlns="http://www.w3.org/2000/svg" xmlns:xlink="http://www.w3.org/1999/xlink" x="0px" y="0px"
	 viewBox="0 0 227 30.1" style="enable-background:new 0 0 227 30.1;" xml:space="preserve">
<style type="text/css">
	.st0{fill:none;stroke:#4898E2;stroke-miterlimit:10;}
	.st1{fill:none;stroke:#4898E2;stroke-width:2;stroke-miterlimit:10;}
	.st2{fill:#00B5A1;}
	.st3{fill:#4898E2;}
	.st4{fill:none;}
	.st5{enable-background:new    ;}
</style>
<path class="st0" d="M212.7,10.8H19.2"/>
<circle class="st1" cx="10.8" cy="10.8" r="8.8"/>
<circle class="st2" cx="10.8" cy="10.8" r="4.1"/>
<polygon class="st3" points="227,10.8 211.2,19.9 211.2,1.7 "/>
<rect x="140" y="16" class="st4" width="64.8" height="17.2"/>
<g class="st5">
	<path class="st3" d="M181.7,16v9.3h-2V16H181.7z"/>
	<path class="st3" d="M189.8,16v9.3h-1.8v-0.9h0c-0.4,0.7-1.1,1-2,1c-0.9,0-1.7-0.3-2.2-1c-0.5-0.7-0.8-1.5-0.8-2.6
		c0-1,0.3-1.9,0.8-2.5c0.6-0.7,1.3-1,2.2-1c0.4,0,0.8,0.1,1.2,0.3s0.6,0.4,0.8,0.7h0V16H189.8z M184.8,21.9c0,0.6,0.1,1.1,0.4,1.5
		c0.3,0.4,0.7,0.6,1.2,0.6c0.5,0,0.9-0.2,1.2-0.6s0.4-0.9,0.4-1.6s-0.1-1.2-0.4-1.6c-0.3-0.4-0.7-0.6-1.2-0.6
		c-0.5,0-0.9,0.2-1.2,0.6C185,20.7,184.8,21.2,184.8,21.9z"/>
	<path class="st3" d="M194.2,18.3c0.6,0,1.2,0.1,1.7,0.4s0.9,0.7,1.2,1.3c0.3,0.6,0.4,1.2,0.4,1.9c0,0.1,0,0.2,0,0.3h-4.8
		c0,0.5,0.2,1,0.4,1.3s0.7,0.4,1.2,0.4c0.3,0,0.6-0.1,0.9-0.3c0.3-0.2,0.5-0.4,0.5-0.6h1.6c-0.5,1.5-1.5,2.3-3.1,2.3
		c-0.6,0-1.2-0.1-1.7-0.4c-0.5-0.3-0.9-0.7-1.3-1.2c-0.3-0.5-0.5-1.2-0.5-1.9c0-0.7,0.2-1.3,0.5-1.9s0.7-1,1.3-1.3
		S193.6,18.3,194.2,18.3z M195.6,21.2c-0.1-0.5-0.2-0.9-0.5-1.1s-0.6-0.3-1-0.3c-0.5,0-0.8,0.1-1.1,0.4c-0.3,0.3-0.4,0.6-0.5,1
		H195.6z"/>
	<path class="st3" d="M201.5,18.3c2,0,2.9,0.6,2.9,1.9v3.6c0,0.7,0.1,1.1,0.2,1.4h-1.9c-0.1-0.2-0.1-0.4-0.1-0.7
		c-0.5,0.6-1.3,0.8-2.3,0.8c-0.7,0-1.3-0.2-1.7-0.5c-0.4-0.4-0.6-0.8-0.6-1.5c0-0.6,0.2-1.1,0.6-1.4c0.4-0.4,1.1-0.6,2.2-0.7
		c0.7-0.1,1.2-0.2,1.4-0.3s0.3-0.3,0.3-0.5c0-0.3-0.1-0.5-0.3-0.7s-0.5-0.2-0.9-0.2c-0.4,0-0.7,0.1-0.9,0.2
		c-0.2,0.2-0.3,0.4-0.4,0.8h-1.8c0-0.7,0.3-1.3,0.9-1.7C199.8,18.5,200.5,18.3,201.5,18.3z M199.9,23.3c0,0.6,0.4,0.9,1.1,0.9
		c1,0,1.5-0.5,1.5-1.5V22c-0.1,0.1-0.5,0.3-1.1,0.3c-0.5,0.1-0.9,0.2-1.1,0.3C200.1,22.8,199.9,23,199.9,23.3z"/>
</g>
</svg>
