<?xml version="1.0" encoding="utf-8"?>
<!-- Generator: Adobe Illustrator 19.2.1, SVG Export Plug-In . SVG Version: 6.00 Build 0)  -->
<svg version="1.1" id="color" xmlns="http://www.w3.org/2000/svg" xmlns:xlink="http://www.w3.org/1999/xlink" x="0px" y="0px"
	 viewBox="0 0 2192 540" style="enable-background:new 0 0 2192 540;" xml:space="preserve">
<style type="text/css">
	.st0{fill:#FFFFFF;filter:url(#Adobe_OpacityMaskFilter);}
	.st1{fill:#FFFFFF;}
	.st2{mask:url(#mask);}
	.st3{fill:url(#SVGID_1_);}
	.st4{fill:#A91560;}
	.st5{fill:url(#SVGID_2_);}
	.st6{fill:#71237C;}
	.st7{fill:url(#SVGID_3_);}
	.st8{fill:#FED500;}
	.st9{fill:url(#_Path_5_1_);}
	.st10{fill:#AA2320;}
</style>
<defs>
	<filter id="Adobe_OpacityMaskFilter" filterUnits="userSpaceOnUse" x="460" y="17.7" width="1644.8" height="534.6">
		<feColorMatrix  type="matrix" values="1 0 0 0 0  0 1 0 0 0  0 0 1 0 0  0 0 0 1 0"/>
	</filter>
</defs>
<mask maskUnits="userSpaceOnUse" x="460" y="17.7" width="1644.8" height="534.6" id="mask">
	<path class="st0" d="M549.6,146.9c22.5,0,40.5,5.2,53.8,15.5c13.3,10.3,20,24.9,20,43.8h-39.2c-0.5-9.3-3.7-16.2-9.4-20.9
		c-5.8-4.6-14.7-7-26.7-7c-8.4,0-15.2,1.8-20.4,5.6c-5,3.5-8,9.2-7.7,15.4c0,5.3,1.6,9.2,4.8,11.6c3.2,2.4,7.7,4.6,13.5,6.4
		c5.8,1.9,16.1,4.6,30.7,8.3c15.3,3.8,27.1,7.9,35.3,12.4s14.5,10.2,18.8,17.1c4.3,7,6.4,15.5,6.5,25.7c0.2,11.1-3.1,22-9.3,31.2
		c-6.2,9.1-15.2,16-27.1,20.8c-11.9,4.7-25.3,7.1-40.2,7.1c-22.9,0-41.7-5.7-56.4-17.1c-14.7-11.4-22-27.1-22-47.1v-1.3h39.2
		c0,10.8,3.7,19.2,11.1,25.1c7.4,5.9,17.2,8.9,29.4,8.9c10.8,0,19.6-1.9,26.2-5.8c6.6-3.9,9.9-9.6,9.9-17.1
		c0.1-4.8-1.9-9.4-5.4-12.7c-4.2-3.8-9.1-6.6-14.5-8.4c-6-2.1-16.1-4.9-30.4-8.1c-16.5-4.1-28.6-8.5-36.1-13.1
		c-7.1-4.1-13-9.9-17.3-16.9c-4-6.6-5.9-14.6-5.9-23.9c0-11.5,3.3-21.6,9.9-30.2c6.7-8.7,15.7-15.3,25.9-19.1
		C527.1,149,538.3,146.9,549.6,146.9z"/>
	<path class="st1" d="M711.6,198.5c12.6,0,23.7,2.9,33.5,8.8s17.5,14.3,23.1,25.4c5.6,11.1,8.4,23.9,8.4,38.3c0,1.4-0.1,3.6-0.3,6.7
		h-96.2c0.3,10.7,3.1,19,8.4,24.9s13.3,8.9,24.1,8.9c6.5,0.1,12.9-1.7,18.4-5c5.6-3.3,9.2-7.4,10.7-12.2H774
		c-9.5,29.9-30.3,44.9-62.4,44.9c-11.8-0.1-23.4-2.8-33.9-8c-10.4-5.2-18.7-13.2-24.9-24.1c-6.2-10.9-9.3-23.6-9.3-38
		c-0.2-13,3.1-25.8,9.4-37.1c6.3-11.2,14.6-19.5,25-25C688.3,201.3,699.8,198.5,711.6,198.5z M739.7,254.5
		c-1.7-10-4.9-17.2-9.5-21.7c-4.6-4.4-11.3-6.7-19.9-6.7c-8.9,0-16,2.5-21.2,7.6c-5.2,5.1-8.2,12-9,20.8H739.7L739.7,254.5z"/>
	<path class="st1" d="M833.1,151.3v184.2h-36.6V151.3H833.1z"/>
	<path class="st1" d="M895.5,151.3v184.2h-36.6V151.3H895.5z"/>
	<path class="st1" d="M1053.1,151.3v34.1h-89v42.6h77.1v31.5h-77.1v76.1h-40.5V151.3H1053.1L1053.1,151.3z"/>
	<path class="st1" d="M1126.9,198.5c21.3,0,38.2,6.5,50.6,19.5c12.4,13,18.6,30,18.5,50.9c0,21.2-6.3,38.1-19,51
		s-29.4,19.2-50.2,19.2c-21.2,0-37.9-6.5-50.3-19.5c-12.4-13-18.6-29.9-18.5-50.7c0-21.5,6.3-38.6,19-51.3
		C1089.7,204.9,1106.3,198.5,1126.9,198.5z M1094.7,268.9c0,13.6,2.8,24.1,8.2,31.5c5.5,7.4,13.5,11.1,24,11.1
		c10.8,0,19-3.8,24.4-11.4c5.4-7.6,8.1-18,8.1-31.2c0-13.8-2.8-24.3-8.4-31.7s-13.7-11.1-24.4-11.1c-10.3,0-18.2,3.7-23.7,11.1
		C1097.4,244.6,1094.7,255.2,1094.7,268.9L1094.7,268.9z"/>
	<path class="st1" d="M1292.8,198.5c2.7-0.1,5.4,0.4,8,1.3v34.1c-4.3-0.9-8.7-1.3-13.2-1.3c-24.1,0-36.1,14.3-36.1,42.8v60.1h-36.6
		V202.1h34.8v24.8h0.5C1257.5,209.8,1274.2,198.6,1292.8,198.5z"/>
	<path class="st1" d="M1351.3,202.1l24.5,90.5h0.5l22.2-90.5h35.6l22.7,90.3h0.5l24.5-90.3h37.7l-42,133.4h-37.7l-23.7-89.5h-0.5
		l-22.7,89.5h-37.9l-42.3-133.4L1351.3,202.1L1351.3,202.1z"/>
	<path class="st1" d="M1588.1,198.5c38.9,0.2,58.3,12.8,58.3,37.9v70.7c0,13.1,1.5,22.5,4.6,28.4h-37.1c-1.4-4.2-2.3-8.5-2.6-12.9
		c-10.8,11-25.8,16.5-44.9,16.5c-13.9,0-25-3.5-33.2-10.6s-12.2-16.9-12.2-29.4c0-12.2,3.9-21.7,11.6-28.4
		c7.9-7,22.3-11.5,43.1-13.4c14.8-1.5,24.2-3.5,28.1-5.8c4-2.3,5.9-5.9,5.9-10.7c0-6-1.8-10.5-5.4-13.4c-3.6-2.9-9.6-4.4-18.1-4.4
		c-7.7,0-13.6,1.6-17.5,4.8c-4,3.2-6.3,8.3-7,15.4h-36.6c0.9-14.6,6.9-25.7,18.1-33.3S1569.4,198.5,1588.1,198.5z M1557.7,297.6
		c0,11.3,7.5,17,22.4,17c19.6-0.2,29.5-10.2,29.7-30.2v-14.2c-2.9,2.9-10.3,5.1-22.2,6.5c-10.3,1.2-17.9,3.3-22.7,6.3
		C1560.1,286,1557.7,290.9,1557.7,297.6L1557.7,297.6z"/>
	<path class="st1" d="M1751.2,198.5c2.7-0.1,5.4,0.4,8,1.3v34.1c-4.3-0.9-8.7-1.3-13.2-1.3c-24.1,0-36.1,14.3-36.1,42.8v60.1h-36.6
		V202.1h34.8v24.8h0.5C1715.8,209.8,1732.6,198.6,1751.2,198.5z"/>
	<path class="st1" d="M1897.2,151.3v184.2h-34.8v-17h-0.5c-7.9,13.8-21.4,20.6-40.5,20.6c-18.4,0-33-6.7-43.7-20.1
		s-16.1-30.5-16.1-51.3c0-20.3,5.5-36.9,16.4-49.8c10.9-12.9,25.1-19.4,42.7-19.4c7.9-0.1,15.7,1.7,22.8,5
		c6.9,3.2,12.7,8.3,16.6,14.8h0.5v-67.1H1897.2z M1798.1,268.7c0,12.2,2.9,22.4,8.6,30.6s13.6,12.2,23.6,12.2
		c10.5,0,18.4-3.8,23.6-11.5c5.2-7.7,7.9-18.2,7.9-31.6s-2.8-23.8-8.2-31.2c-5.5-7.4-13.3-11.1-23.5-11.1
		c-10.5,0-18.4,3.9-23.9,11.6C1800.8,245.5,1798.1,255.8,1798.1,268.7z"/>
	
		<rect id="_Rectangle_" x="1920.1" y="166.3" transform="matrix(0.7071 -0.7071 0.7071 0.7071 439.9112 1441.7732)" class="st1" width="80.5" height="47.1"/>
	<polygon id="_Path_" class="st1" points="1991.4,364 1974.9,380.3 1911.9,317.9 1929.1,300.7 	"/>
	<polygon id="_Path_2" class="st1" points="2091.5,264.1 2071.9,283.6 2010.2,222.1 2029.8,202.4 	"/>
	<polygon id="_Path_3" class="st1" points="1912.6,85.1 1862.2,34.7 1839.9,57 1841.5,58.5 1867.9,84.9 1872.1,89.2 1867.9,93.4 
		1847.3,114 1844,117.3 1862.2,135.5 	"/>
	<polyline id="_Path_4" class="st1" points="1874.1,449.2 1869.9,453.4 1852.6,470.7 1868.5,486.6 1911.1,444 1862.6,395.6 
		1841.6,416.6 	"/>
</mask>
<g class="st2">
	
		<linearGradient id="SVGID_1_" gradientUnits="userSpaceOnUse" x1="737.5575" y1="-289.8075" x2="1827.2626" y2="799.8975" gradientTransform="matrix(1 0 0 -1 0 540)">
		<stop  offset="0" style="stop-color:#412356"/>
		<stop  offset="0.5" style="stop-color:#DB2780"/>
		<stop  offset="0.88" style="stop-color:#FED500"/>
	</linearGradient>
	<rect x="460" y="17.7" class="st3" width="1644.8" height="534.6"/>
</g>
<title>logo_color</title>
<path class="st4" d="M1857.7,339.7l-2.6-2.6c-8.7,6-19.6,9-32.8,9c-2.3,0-4.6-0.1-6.8-0.3l-7.9,7.9l31,31l-23.2,23.3l12.1,12.1
	l55.3-55.3l-23.7-23.6C1858.6,340.7,1858.1,340.2,1857.7,339.7z"/>
<linearGradient id="SVGID_2_" gradientUnits="userSpaceOnUse" x1="1881.3175" y1="136.5125" x2="1934.2526" y2="189.4475" gradientTransform="matrix(1 0 0 -1 0 540)">
	<stop  offset="0" style="stop-color:#A91560"/>
	<stop  offset="1" style="stop-color:#71237C"/>
</linearGradient>
<path class="st5" d="M1904,321.4v14.1c0,3.9-2,8.5-5.8,8.5H1870l22.4,21.2l-24.4,24.9l48.7,48.7l52.4-53.4L1904,321.4z"/>
<polygon class="st4" points="1909.4,208 1904,212.3 1904,310.1 1907.1,312.1 1960.7,258.8 "/>
<polygon class="st6" points="1904,184.1 1904,202 1912.2,193.4 "/>
<linearGradient id="SVGID_3_" gradientUnits="userSpaceOnUse" x1="1886.6372" y1="369.1172" x2="1942.1177" y2="424.6077" gradientTransform="matrix(1 0 0 -1 0 540)">
	<stop  offset="0" style="stop-color:#A91560"/>
	<stop  offset="1" style="stop-color:#71237C"/>
</linearGradient>
<path class="st7" d="M1917,90.3l-55.2,55.7h36.4c3.9,0,5.8,1.4,5.8,5.3v25.2l13.1,12.3l50.2-48.3L1917,90.3z"/>
<path class="st8" d="M1846.6,197.2c2.3,1.1,4.5,2.5,6.4,4.2v-50.1c0-0.4,0.8-0.7,0.8-1L1827,178l17.6,18.2
	C1845.3,196.6,1845.8,196.9,1846.6,197.2z"/>
<path class="st4" d="M1821.5,191.5c4.2,0,8.4,0.4,12.6,1.3l-10.6-10.6l-9.7,9.7C1816.4,191.7,1819,191.5,1821.5,191.5z"/>
<rect id="_Rectangle_2" x="1949.1" y="209.6" transform="matrix(0.7071 -0.7071 0.7071 0.7071 427.8056 1470.6484)" class="st4" width="80.1" height="18.6"/>
<linearGradient id="_Path_5_1_" gradientUnits="userSpaceOnUse" x1="1422.5385" y1="-331.3662" x2="1517.9283" y2="-235.9862" gradientTransform="matrix(0.86 0.14 -0.14 -0.86 693.31 -153.31)">
	<stop  offset="0" style="stop-color:#A91560"/>
	<stop  offset="1" style="stop-color:#71237C"/>
</linearGradient>
<polygon id="_Path_5" class="st9" points="2065.2,290.4 1996.6,358.9 1934.4,297.8 2003.4,228.8 "/>
<polygon class="st6" points="1857.5,138.3 1827.2,108 1804.7,129.6 1823.8,148.9 1810.6,162.1 1822.1,173.6 1842.2,153.4 "/>
<rect id="_Path_6" x="1829.6" y="423.5" transform="matrix(0.7071 -0.7071 0.7071 0.7071 225.7796 1432.282)" class="st10" width="24.4" height="40.2"/>
<path class="st6" d="M23.2,146.8v190H5.1v-190H23.2z"/>
<path class="st6" d="M142.7,146.8c19.7,0,34.8,3.9,45.2,11.8s15.7,19.4,15.7,34.5c0.1,9.7-3,19.2-8.6,27
	c-5.8,8.1-13.9,13.4-24.4,15.8v0.5c12.2,1.6,22,6.6,29.3,15c7.3,8.4,10.9,18.8,10.9,31.3c0,17.7-5.8,31.2-17.3,40.3
	c-11.5,9.1-28.4,13.7-50.5,13.8H62.3v-190L142.7,146.8L142.7,146.8z M143,230c13.3,0,23.8-2.9,31.3-8.8c7.5-5.9,11.3-13.7,11.3-23.4
	c0-23.8-14.4-35.7-43.1-35.7h-62V230H143z M143,321.3c33.2,0,49.8-13,49.8-39.1c0-24.5-16.7-36.7-50-36.7H80.4v75.8H143z"/>
<path class="st6" d="M265.4,146.8l65.7,166.6l65.5-166.6h26.6v190h-18.1V172.6h-0.5l-64.9,164.2h-17l-65.2-164.2h-0.5v164.2h-18.1
	v-190L265.4,146.8L265.4,146.8z"/>
<path id="_Compound_Path_" class="st4" d="M1862.7,89.2l-23.1,23.1l-27.6-27.6l23.1-23.1L1862.7,89.2z"/>
</svg>
