<?xml version="1.0" encoding="utf-8"?>
<!-- Generator: Adobe Illustrator 19.2.1, SVG Export Plug-In . SVG Version: 6.00 Build 0)  -->
<svg version="1.1" id="Layer_1" xmlns="http://www.w3.org/2000/svg" xmlns:xlink="http://www.w3.org/1999/xlink" x="0px" y="0px"
	 viewBox="0 0 1080 768" style="enable-background:new 0 0 1080 768;" xml:space="preserve">
<style type="text/css">
	.st0{fill:url(#SVGID_1_);}
	.st1{fill:url(#SVGID_2_);}
	.st2{fill:url(#SVGID_3_);}
	.st3{fill:url(#SVGID_4_);}
	.st4{opacity:0.25;}
	.st5{fill:url(#SVGID_5_);}
	.st6{fill:url(#SVGID_6_);}
	.st7{fill:url(#SVGID_7_);}
	.st8{fill:url(#SVGID_8_);}
	.st9{fill:url(#SVGID_9_);}
	.st10{fill:url(#SVGID_10_);}
	.st11{fill:url(#SVGID_11_);}
	.st12{fill:url(#SVGID_12_);}
	.st13{fill:url(#SVGID_13_);}
	.st14{fill:url(#SVGID_14_);}
	.st15{fill:url(#SVGID_15_);}
	.st16{fill:url(#SVGID_16_);}
	.st17{fill:url(#SVGID_17_);}
	.st18{fill:url(#SVGID_18_);}
	.st19{fill:url(#SVGID_19_);}
	.st20{fill:url(#SVGID_20_);}
	.st21{fill:url(#SVGID_21_);}
	.st22{fill:url(#SVGID_22_);}
	.st23{fill:url(#SVGID_23_);}
	.st24{fill:url(#SVGID_24_);}
	.st25{fill:url(#SVGID_25_);}
	.st26{fill:url(#SVGID_26_);}
	.st27{fill:url(#SVGID_27_);}
</style>
<linearGradient id="SVGID_1_" gradientUnits="userSpaceOnUse" x1="-85.325" y1="85.325" x2="512.025" y2="682.675" gradientTransform="matrix(1 0 0 -1 0 768)">
	<stop  offset="0" style="stop-color:#62256C"/>
	<stop  offset="1" style="stop-color:#A52850"/>
</linearGradient>
<rect class="st0" width="426.7" height="768"/>
<linearGradient id="SVGID_2_" gradientUnits="userSpaceOnUse" x1="78" y1="-78" x2="1002" y2="846" gradientTransform="matrix(1 0 0 -1 0 768)">
	<stop  offset="0" style="stop-color:#E1393A"/>
	<stop  offset="1" style="stop-color:#CA118C"/>
</linearGradient>
<rect class="st1" width="1080" height="768"/>
<linearGradient id="SVGID_3_" gradientUnits="userSpaceOnUse" x1="35.6687" y1="-111.615" x2="1046.5784" y2="899.2946" gradientTransform="matrix(4.489659e-11 1 -1 4.489659e-11 925.5 -155.5)">
	<stop  offset="0" style="stop-color:#412356"/>
	<stop  offset="0.6333" style="stop-color:#DB2780"/>
	<stop  offset="1" style="stop-color:#FED500"/>
</linearGradient>
<polygon class="st2" points="-9.2,855.7 -9.2,-84.5 1072.5,-84.5 1072.5,855.7 "/>
<linearGradient id="SVGID_4_" gradientUnits="userSpaceOnUse" x1="28.0458" y1="-126.9447" x2="1052.714" y2="897.7234" gradientTransform="matrix(4.489659e-11 1 -1 4.489659e-11 925.5 -155.5)">
	<stop  offset="0" style="stop-color:#412356"/>
	<stop  offset="0.6333" style="stop-color:#DB2780"/>
	<stop  offset="1" style="stop-color:#FED500"/>
</linearGradient>
<polygon class="st3" points="-14.4,855 -14.4,-85.3 1094.6,-85.3 1094.6,855 "/>
<g class="st4">
	
		<linearGradient id="SVGID_5_" gradientUnits="userSpaceOnUse" x1="-464.2846" y1="-80.037" x2="193.4749" y2="-80.037" gradientTransform="matrix(4.489659e-11 1 -1 4.489659e-11 925.5 -155.5)">
		<stop  offset="0" style="stop-color:#FFFFFF;stop-opacity:0.25"/>
		<stop  offset="1" style="stop-color:#FFFFFF;stop-opacity:0"/>
	</linearGradient>
	<polygon class="st5" points="1118,-107 893.1,-107 894.6,-105.9 1094.1,6 1118,18.9 	"/>
	
		<linearGradient id="SVGID_6_" gradientUnits="userSpaceOnUse" x1="-121.2289" y1="361.2458" x2="111.7281" y2="361.2458" gradientTransform="matrix(4.489659e-11 1 -1 4.489659e-11 925.5 -155.5)">
		<stop  offset="0" style="stop-color:#FFFFFF;stop-opacity:0.25"/>
		<stop  offset="1" style="stop-color:#FFFFFF;stop-opacity:0"/>
	</linearGradient>
	<polygon class="st6" points="582.4,-43.8 585.5,-106 543,-106 	"/>
	
		<linearGradient id="SVGID_7_" gradientUnits="userSpaceOnUse" x1="-120.2135" y1="75.3475" x2="328.3958" y2="75.3475" gradientTransform="matrix(4.489659e-11 1 -1 4.489659e-11 925.5 -155.5)">
		<stop  offset="0" style="stop-color:#FFFFFF;stop-opacity:0.25"/>
		<stop  offset="1" style="stop-color:#FFFFFF;stop-opacity:0"/>
	</linearGradient>
	<polygon class="st7" points="1118,18.9 1094.1,5.9 894.6,-106 585.5,-106 582.3,-44.1 700.2,141.8 1094.1,169.2 1118,170.7 	"/>
	
		<linearGradient id="SVGID_8_" gradientUnits="userSpaceOnUse" x1="372.446" y1="491.675" x2="635.4624" y2="491.675" gradientTransform="matrix(4.489659e-11 1 -1 4.489659e-11 925.5 -155.5)">
		<stop  offset="0" style="stop-color:#FFFFFF;stop-opacity:0.25"/>
		<stop  offset="1" style="stop-color:#FFFFFF;stop-opacity:0"/>
	</linearGradient>
	<polygon class="st8" points="561.1,336.1 517,315 312.2,218.1 306.6,479.9 317.2,473.9 	"/>
	
		<linearGradient id="SVGID_9_" gradientUnits="userSpaceOnUse" x1="111.029" y1="293.5658" x2="504.3844" y2="293.5658" gradientTransform="matrix(4.489659e-11 1 -1 4.489659e-11 925.5 -155.5)">
		<stop  offset="0" style="stop-color:#FFFFFF;stop-opacity:0.25"/>
		<stop  offset="1" style="stop-color:#FFFFFF;stop-opacity:0"/>
	</linearGradient>
	<polygon class="st9" points="586.5,347.7 586.4,347.7 700.5,141.7 582.4,-44.5 563.4,335.1 585.9,348.9 	"/>
	
		<linearGradient id="SVGID_10_" gradientUnits="userSpaceOnUse" x1="297.2147" y1="73.2576" x2="679.1478" y2="73.2576" gradientTransform="matrix(4.489659e-11 1 -1 4.489659e-11 925.5 -155.5)">
		<stop  offset="0" style="stop-color:#FFFFFF;stop-opacity:0.25"/>
		<stop  offset="1" style="stop-color:#FFFFFF;stop-opacity:0"/>
	</linearGradient>
	<polygon class="st10" points="1094.1,388.6 1118,374.6 1118,170.7 1094.1,169.1 700.2,141.7 586.5,347.7 871,523.6 	"/>
	
		<linearGradient id="SVGID_11_" gradientUnits="userSpaceOnUse" x1="549.9745" y1="115.5371" x2="1130.9369" y2="115.5371" gradientTransform="matrix(4.489659e-11 1 -1 4.489659e-11 925.5 -155.5)">
		<stop  offset="0" style="stop-color:#FFFFFF;stop-opacity:0.25"/>
		<stop  offset="1" style="stop-color:#FFFFFF;stop-opacity:0"/>
	</linearGradient>
	<polygon class="st11" points="871.2,523.6 544,721.9 536.2,878 699.8,878 1083.7,655.3 	"/>
	
		<linearGradient id="SVGID_12_" gradientUnits="userSpaceOnUse" x1="550.2791" y1="496.8484" x2="1130.8755" y2="496.8484" gradientTransform="matrix(4.489659e-11 1 -1 4.489659e-11 925.5 -155.5)">
		<stop  offset="0" style="stop-color:#FFFFFF;stop-opacity:0.25"/>
		<stop  offset="1" style="stop-color:#FFFFFF;stop-opacity:0"/>
	</linearGradient>
	<polygon class="st12" points="544,721.9 300,869.3 544,721.6 560.4,394.8 297,870.5 296.9,877.3 297.8,878 536.2,878 	"/>
	
		<linearGradient id="SVGID_13_" gradientUnits="userSpaceOnUse" x1="785.4277" y1="-180.5" x2="837.233" y2="-180.5" gradientTransform="matrix(4.489659e-11 1 -1 4.489659e-11 925.5 -155.5)">
		<stop  offset="0" style="stop-color:#FFFFFF;stop-opacity:0.25"/>
		<stop  offset="1" style="stop-color:#FFFFFF;stop-opacity:0"/>
	</linearGradient>
	<polygon class="st13" points="1094,648.7 1094,661.5 1118,675.8 1118,635.2 	"/>
	
		<linearGradient id="SVGID_14_" gradientUnits="userSpaceOnUse" x1="-57.3235" y1="485.7724" x2="1026.007" y2="485.7724" gradientTransform="matrix(4.489659e-11 1 -1 4.489659e-11 925.5 -155.5)">
		<stop  offset="0" style="stop-color:#FFFFFF;stop-opacity:0.25"/>
		<stop  offset="1" style="stop-color:#FFFFFF;stop-opacity:0"/>
	</linearGradient>
	<polygon class="st14" points="563,335.2 563.4,335.4 563.4,335.1 562.8,334.7 582.4,-44.1 543,-106 317.9,-106 311,217.9 
		312.2,218.3 312.2,217 517,315 562.9,336.7 317.2,473.9 306.6,480 306.6,479.9 305.4,480.6 297,870.5 560.4,394.7 	"/>
	<g>
		
			<linearGradient id="SVGID_15_" gradientUnits="userSpaceOnUse" x1="810.3746" y1="-158.2263" x2="810.4144" y2="-158.2263" gradientTransform="matrix(4.489659e-11 1 -1 4.489659e-11 925.5 -155.5)">
			<stop  offset="0" style="stop-color:#FFFFFF;stop-opacity:0.25"/>
			<stop  offset="1" style="stop-color:#FFFFFF;stop-opacity:0"/>
		</linearGradient>
		<polygon class="st15" points="1083.8,654.9 1083.7,654.9 1083.7,654.9 		"/>
		
			<linearGradient id="SVGID_16_" gradientUnits="userSpaceOnUse" x1="510.0174" y1="-68.9947" x2="810.423" y2="-68.9947" gradientTransform="matrix(4.489659e-11 1 -1 4.489659e-11 925.5 -155.5)">
			<stop  offset="0" style="stop-color:#FFFFFF;stop-opacity:0.25"/>
			<stop  offset="1" style="stop-color:#FFFFFF;stop-opacity:0"/>
		</linearGradient>
		<polygon class="st16" points="1094.1,648.7 1118,635.2 1118,374.6 1094.1,388.6 871,523.6 1083.6,654.9 		"/>
		
			<linearGradient id="SVGID_17_" gradientUnits="userSpaceOnUse" x1="810.3817" y1="-158.1415" x2="810.4171" y2="-158.1415" gradientTransform="matrix(4.489659e-11 1 -1 4.489659e-11 925.5 -155.5)">
			<stop  offset="0" style="stop-color:#FFFFFF;stop-opacity:0.25"/>
			<stop  offset="1" style="stop-color:#FFFFFF;stop-opacity:0"/>
		</linearGradient>
		<polygon class="st17" points="1083.7,654.9 1083.7,654.9 1083.6,654.9 		"/>
	</g>
	
		<linearGradient id="SVGID_18_" gradientUnits="userSpaceOnUse" x1="575.4762" y1="203.1071" x2="884.5019" y2="367.4189" gradientTransform="matrix(4.489659e-11 1 -1 4.489659e-11 925.5 -155.5)">
		<stop  offset="0" style="stop-color:#FFFFFF;stop-opacity:0.25"/>
		<stop  offset="0.1279" style="stop-color:#FFFFFF;stop-opacity:0.218"/>
		<stop  offset="1" style="stop-color:#FFFFFF;stop-opacity:0"/>
	</linearGradient>
	<polygon class="st18" points="560.4,394.7 544,721.5 871.2,523.6 563.4,335.4 	"/>
	
		<linearGradient id="SVGID_19_" gradientUnits="userSpaceOnUse" x1="803.3454" y1="778.1147" x2="1373.9435" y2="778.1147" gradientTransform="matrix(4.489659e-11 1 -1 4.489659e-11 925.5 -155.5)">
		<stop  offset="0" style="stop-color:#FFFFFF;stop-opacity:0.25"/>
		<stop  offset="1" style="stop-color:#FFFFFF;stop-opacity:0"/>
	</linearGradient>
	<polygon class="st19" points="294.4,875.3 0.4,647.8 41.1,878 293.1,878 	"/>
	
		<linearGradient id="SVGID_20_" gradientUnits="userSpaceOnUse" x1="493.5485" y1="924.7191" x2="1358.2172" y2="924.7191" gradientTransform="matrix(4.489659e-11 1 -1 4.489659e-11 925.5 -155.5)">
		<stop  offset="0" style="stop-color:#FFFFFF;stop-opacity:0.25"/>
		<stop  offset="1" style="stop-color:#FFFFFF;stop-opacity:0"/>
	</linearGradient>
	<polygon class="st20" points="0.3,647.2 0.3,647.3 -6.3,642.1 -38,617.7 -38,878 39.6,878 0.3,647.6 	"/>
	
		<linearGradient id="SVGID_21_" gradientUnits="userSpaceOnUse" x1="203.8981" y1="944.5643" x2="802.7141" y2="944.5643" gradientTransform="matrix(4.489659e-11 1 -1 4.489659e-11 925.5 -155.5)">
		<stop  offset="0" style="stop-color:#FFFFFF;stop-opacity:0.25"/>
		<stop  offset="1" style="stop-color:#FFFFFF;stop-opacity:0"/>
	</linearGradient>
	<polygon class="st21" points="-0.1,647.2 -2,639.1 -2,48.4 -38,68.8 -38,617.4 -6.4,642.1 	"/>
	
		<linearGradient id="SVGID_22_" gradientUnits="userSpaceOnUse" x1="28.8863" y1="767.5716" x2="794.6443" y2="767.5716" gradientTransform="matrix(4.489659e-11 1 -1 4.489659e-11 925.5 -155.5)">
		<stop  offset="0" style="stop-color:#FFFFFF;stop-opacity:0.25"/>
		<stop  offset="1" style="stop-color:#FFFFFF;stop-opacity:0"/>
	</linearGradient>
	<polygon class="st22" points="311,217.5 -0.3,51 311,217.9 317.9,-106 280.8,-106 -2,48.4 -2,639.1 304.9,480.6 	"/>
	
		<linearGradient id="SVGID_23_" gradientUnits="userSpaceOnUse" x1="636.0558" y1="773.3613" x2="1030.3578" y2="773.3613" gradientTransform="matrix(4.489659e-11 1 -1 4.489659e-11 925.5 -155.5)">
		<stop  offset="0" style="stop-color:#FFFFFF;stop-opacity:0.25"/>
		<stop  offset="1" style="stop-color:#FFFFFF;stop-opacity:0"/>
	</linearGradient>
	<polygon class="st23" points="294.5,874.8 294.6,874.9 297,870.5 305.4,480.6 -1.1,639.1 0.3,647.3 0.4,647.3 0.3,647.1 	"/>
	
		<linearGradient id="SVGID_24_" gradientUnits="userSpaceOnUse" x1="-16.9578" y1="933.9825" x2="404.7142" y2="933.9825" gradientTransform="matrix(4.489659e-11 1 -1 4.489659e-11 925.5 -155.5)">
		<stop  offset="0" style="stop-color:#FFFFFF;stop-opacity:0.25"/>
		<stop  offset="1" style="stop-color:#FFFFFF;stop-opacity:0"/>
	</linearGradient>
	<polygon class="st24" points="21,-106 -38,-106 -38,68.8 -2,48.4 -2,22.8 	"/>
	
		<linearGradient id="SVGID_25_" gradientUnits="userSpaceOnUse" x1="-274.4936" y1="786.1118" x2="203.8981" y2="786.1118" gradientTransform="matrix(4.489659e-11 1 -1 4.489659e-11 925.5 -155.5)">
		<stop  offset="0" style="stop-color:#FFFFFF;stop-opacity:0.25"/>
		<stop  offset="1" style="stop-color:#FFFFFF;stop-opacity:0"/>
	</linearGradient>
	<polygon class="st25" points="21,-106 -2,22.8 -2,48.4 280.8,-106 	"/>
	
		<linearGradient id="SVGID_26_" gradientUnits="userSpaceOnUse" x1="810.8109" y1="16.3892" x2="1374.1241" y2="16.3892" gradientTransform="matrix(4.489659e-11 1 -1 4.489659e-11 925.5 -155.5)">
		<stop  offset="0" style="stop-color:#FFFFFF;stop-opacity:0.25"/>
		<stop  offset="1" style="stop-color:#FFFFFF;stop-opacity:0"/>
	</linearGradient>
	<polygon class="st26" points="1118,676 1094.1,661.6 1083.5,655.3 700.2,878 1094.1,878 1118,878 	"/>
	
		<linearGradient id="SVGID_27_" gradientUnits="userSpaceOnUse" x1="810.3772" y1="-180.5" x2="1372.7881" y2="-180.5" gradientTransform="matrix(4.489659e-11 1 -1 4.489659e-11 925.5 -155.5)">
		<stop  offset="0" style="stop-color:#FFFFFF;stop-opacity:0.25"/>
		<stop  offset="1" style="stop-color:#FFFFFF;stop-opacity:0"/>
	</linearGradient>
	<polygon class="st27" points="1094,661.5 1094,661.6 1118,676 1118,675.8 	"/>
</g>
</svg>
