<?xml version="1.0" encoding="utf-8"?>
<!-- Generator: Adobe Illustrator 19.2.1, SVG Export Plug-In . SVG Version: 6.00 Build 0)  -->
<svg version="1.1" id="Layer_1" xmlns="http://www.w3.org/2000/svg" xmlns:xlink="http://www.w3.org/1999/xlink" x="0px" y="0px"
	 viewBox="0 0 227 30.1" style="enable-background:new 0 0 227 30.1;" xml:space="preserve">
<style type="text/css">
	.st0{fill:none;stroke:#4898E2;stroke-miterlimit:10;}
	.st1{fill:none;stroke:#4898E2;stroke-width:2;stroke-miterlimit:10;}
	.st2{fill:#00B5A1;}
	.st3{fill:#4898E2;}
	.st4{fill:none;}
	.st5{enable-background:new    ;}
</style>
<path class="st0" d="M212.7,10.8H19.2"/>
<circle class="st1" cx="10.8" cy="10.8" r="8.8"/>
<circle class="st2" cx="10.8" cy="10.8" r="4.1"/>
<polygon class="st3" points="227,10.8 211.2,19.9 211.2,1.7 "/>
<rect x="129" y="16" class="st4" width="75.8" height="17.2"/>
<g class="st5">
	<path class="st3" d="M156.4,16c1,0,1.8,0.3,2.3,0.8c0.6,0.5,0.9,1.3,0.9,2.2c0,0.9-0.3,1.6-0.9,2.2c-0.6,0.5-1.3,0.8-2.3,0.8h-2.2
		v3.3h-2V16H156.4z M155.9,20.3c0.6,0,1-0.1,1.3-0.3c0.3-0.2,0.4-0.6,0.4-1.1c0-0.5-0.1-0.8-0.4-1.1c-0.3-0.2-0.7-0.3-1.3-0.3h-1.6
		v2.8H155.9z"/>
	<path class="st3" d="M164.3,18.3c0.2,0,0.3,0,0.4,0.1v1.7c-0.2,0-0.4-0.1-0.7-0.1c-1.2,0-1.8,0.7-1.8,2.2v3h-1.8v-6.7h1.8v1.2h0
		c0.2-0.4,0.5-0.8,0.9-1C163.4,18.5,163.8,18.3,164.3,18.3z"/>
	<path class="st3" d="M168.3,18.3c1.1,0,1.9,0.3,2.5,1c0.6,0.7,0.9,1.5,0.9,2.6c0,1.1-0.3,1.9-1,2.6c-0.6,0.6-1.5,1-2.5,1
		c-1.1,0-1.9-0.3-2.5-1s-0.9-1.5-0.9-2.6c0-1.1,0.3-1.9,1-2.6C166.4,18.7,167.3,18.3,168.3,18.3z M166.7,21.9c0,0.7,0.1,1.2,0.4,1.6
		c0.3,0.4,0.7,0.6,1.2,0.6c0.5,0,1-0.2,1.2-0.6c0.3-0.4,0.4-0.9,0.4-1.6c0-0.7-0.1-1.2-0.4-1.6c-0.3-0.4-0.7-0.6-1.2-0.6
		c-0.5,0-0.9,0.2-1.2,0.6C166.8,20.7,166.7,21.2,166.7,21.9z"/>
	<path class="st3" d="M176.5,18.3c0.9,0,1.7,0.3,2.2,1c0.6,0.6,0.8,1.5,0.8,2.6c0,1-0.3,1.8-0.8,2.5c-0.5,0.7-1.3,1-2.2,1
		c-0.9,0-1.6-0.3-2-1h0v3.2h-1.8v-9.1h1.8v0.9h0C175,18.7,175.6,18.3,176.5,18.3z M174.5,21.9c0,0.7,0.1,1.2,0.4,1.6
		c0.3,0.4,0.7,0.6,1.2,0.6c0.5,0,0.9-0.2,1.2-0.6c0.3-0.4,0.4-0.9,0.4-1.6c0-0.7-0.1-1.2-0.4-1.6c-0.3-0.4-0.7-0.6-1.2-0.6
		c-0.5,0-0.9,0.2-1.2,0.6C174.7,20.7,174.5,21.2,174.5,21.9z"/>
	<path class="st3" d="M183.7,18.3c1.1,0,1.9,0.3,2.5,1c0.6,0.7,0.9,1.5,0.9,2.6c0,1.1-0.3,1.9-1,2.6s-1.5,1-2.5,1
		c-1.1,0-1.9-0.3-2.5-1s-0.9-1.5-0.9-2.6c0-1.1,0.3-1.9,1-2.6C181.8,18.7,182.7,18.3,183.7,18.3z M182.1,21.9c0,0.7,0.1,1.2,0.4,1.6
		c0.3,0.4,0.7,0.6,1.2,0.6c0.5,0,1-0.2,1.2-0.6c0.3-0.4,0.4-0.9,0.4-1.6c0-0.7-0.1-1.2-0.4-1.6c-0.3-0.4-0.7-0.6-1.2-0.6
		c-0.5,0-0.9,0.2-1.2,0.6C182.2,20.7,182.1,21.2,182.1,21.9z"/>
	<path class="st3" d="M190.9,18.3c0.9,0,1.6,0.2,2.1,0.5c0.5,0.4,0.8,0.9,0.9,1.6h-1.8c0-0.3-0.1-0.6-0.4-0.7
		c-0.2-0.1-0.5-0.2-0.9-0.2c-0.3,0-0.6,0.1-0.8,0.2c-0.2,0.1-0.3,0.3-0.3,0.5c0,0.2,0.1,0.3,0.2,0.4c0.1,0.1,0.3,0.2,0.5,0.3
		s0.5,0.1,0.8,0.2c0.8,0.2,1.4,0.3,1.8,0.5c0.3,0.2,0.6,0.4,0.8,0.6c0.2,0.2,0.2,0.5,0.2,0.9c0,0.8-0.3,1.3-0.8,1.7
		c-0.5,0.4-1.3,0.6-2.2,0.6c-1,0-1.8-0.2-2.3-0.6c-0.5-0.4-0.8-1-0.9-1.7h1.8c0,0.3,0.1,0.6,0.4,0.8s0.6,0.3,1,0.3
		c0.3,0,0.6-0.1,0.9-0.2c0.2-0.2,0.3-0.4,0.3-0.6c0-0.2-0.1-0.3-0.2-0.4c-0.1-0.1-0.3-0.2-0.6-0.3c-0.3-0.1-0.7-0.2-1.2-0.3
		c-0.4-0.1-0.8-0.2-1.2-0.4s-0.6-0.3-0.8-0.6s-0.3-0.5-0.3-0.9c0-0.4,0.1-0.8,0.3-1.2c0.2-0.3,0.5-0.6,1-0.7
		C189.7,18.4,190.2,18.3,190.9,18.3z"/>
	<path class="st3" d="M198.1,18.3c2,0,2.9,0.6,2.9,1.9v3.6c0,0.7,0.1,1.1,0.2,1.4h-1.9c-0.1-0.2-0.1-0.4-0.1-0.7
		c-0.5,0.6-1.3,0.8-2.3,0.8c-0.7,0-1.3-0.2-1.7-0.5c-0.4-0.4-0.6-0.8-0.6-1.5c0-0.6,0.2-1.1,0.6-1.4c0.4-0.4,1.1-0.6,2.2-0.7
		c0.7-0.1,1.2-0.2,1.4-0.3s0.3-0.3,0.3-0.5c0-0.3-0.1-0.5-0.3-0.7s-0.5-0.2-0.9-0.2c-0.4,0-0.7,0.1-0.9,0.2
		c-0.2,0.2-0.3,0.4-0.4,0.8h-1.8c0-0.7,0.3-1.3,0.9-1.7C196.4,18.5,197.1,18.3,198.1,18.3z M196.5,23.3c0,0.6,0.4,0.9,1.1,0.9
		c1,0,1.5-0.5,1.5-1.5V22c-0.1,0.1-0.5,0.3-1.1,0.3c-0.5,0.1-0.9,0.2-1.1,0.3C196.7,22.8,196.5,23,196.5,23.3z"/>
	<path class="st3" d="M204.2,16v9.3h-1.8V16H204.2z"/>
</g>
</svg>
