<?xml version="1.0" encoding="utf-8"?>
<!-- Generator: Adobe Illustrator 19.2.1, SVG Export Plug-In . SVG Version: 6.00 Build 0)  -->
<svg version="1.1" id="Layer_1" xmlns="http://www.w3.org/2000/svg" xmlns:xlink="http://www.w3.org/1999/xlink" x="0px" y="0px"
	 viewBox="0 0 227 30.1" style="enable-background:new 0 0 227 30.1;" xml:space="preserve">
<style type="text/css">
	.st0{fill:none;stroke:#4898E2;stroke-miterlimit:10;}
	.st1{fill:none;stroke:#4898E2;stroke-width:2;stroke-miterlimit:10;}
	.st2{fill:#00B5A1;}
	.st3{fill:#4898E2;}
	.st4{fill:none;}
	.st5{enable-background:new    ;}
</style>
<path class="st0" d="M212.7,10.8H19.2"/>
<circle class="st1" cx="10.8" cy="10.8" r="8.8"/>
<circle class="st2" cx="10.8" cy="10.8" r="4.1"/>
<polygon class="st3" points="227,10.8 211.2,19.9 211.2,1.7 "/>
<rect x="129" y="16" class="st4" width="75.8" height="17.2"/>
<g class="st5">
	<path class="st3" d="M140.8,16c1,0,1.8,0.3,2.3,0.8c0.6,0.5,0.9,1.3,0.9,2.2c0,0.9-0.3,1.6-0.9,2.2c-0.6,0.5-1.3,0.8-2.3,0.8h-2.2
		v3.3h-2V16H140.8z M140.2,20.3c0.6,0,1-0.1,1.3-0.3c0.3-0.2,0.4-0.6,0.4-1.1c0-0.5-0.1-0.8-0.4-1.1c-0.3-0.2-0.7-0.3-1.3-0.3h-1.6
		v2.8H140.2z"/>
	<path class="st3" d="M148.6,18.3c0.2,0,0.3,0,0.4,0.1v1.7c-0.2,0-0.4-0.1-0.7-0.1c-1.2,0-1.8,0.7-1.8,2.2v3h-1.8v-6.7h1.8v1.2h0
		c0.2-0.4,0.5-0.8,0.9-1C147.7,18.5,148.1,18.3,148.6,18.3z"/>
	<path class="st3" d="M152.6,18.3c1.1,0,1.9,0.3,2.5,1c0.6,0.7,0.9,1.5,0.9,2.6c0,1.1-0.3,1.9-1,2.6c-0.6,0.6-1.5,1-2.5,1
		c-1.1,0-1.9-0.3-2.5-1s-0.9-1.5-0.9-2.6c0-1.1,0.3-1.9,1-2.6C150.7,18.7,151.6,18.3,152.6,18.3z M151,21.9c0,0.7,0.1,1.2,0.4,1.6
		c0.3,0.4,0.7,0.6,1.2,0.6c0.5,0,1-0.2,1.2-0.6c0.3-0.4,0.4-0.9,0.4-1.6c0-0.7-0.1-1.2-0.4-1.6c-0.3-0.4-0.7-0.6-1.2-0.6
		c-0.5,0-0.9,0.2-1.2,0.6C151.1,20.7,151,21.2,151,21.9z"/>
	<path class="st3" d="M160.8,18.3c0.9,0,1.7,0.3,2.2,1c0.6,0.6,0.8,1.5,0.8,2.6c0,1-0.3,1.8-0.8,2.5c-0.5,0.7-1.3,1-2.2,1
		c-0.9,0-1.6-0.3-2-1h0v3.2h-1.8v-9.1h1.8v0.9h0C159.3,18.7,160,18.3,160.8,18.3z M158.8,21.9c0,0.7,0.1,1.2,0.4,1.6
		c0.3,0.4,0.7,0.6,1.2,0.6c0.5,0,0.9-0.2,1.2-0.6c0.3-0.4,0.4-0.9,0.4-1.6c0-0.7-0.1-1.2-0.4-1.6c-0.3-0.4-0.7-0.6-1.2-0.6
		c-0.5,0-0.9,0.2-1.2,0.6C159,20.7,158.8,21.2,158.8,21.9z"/>
	<path class="st3" d="M168,18.3c1.1,0,1.9,0.3,2.5,1c0.6,0.7,0.9,1.5,0.9,2.6c0,1.1-0.3,1.9-1,2.6s-1.5,1-2.5,1
		c-1.1,0-1.9-0.3-2.5-1s-0.9-1.5-0.9-2.6c0-1.1,0.3-1.9,1-2.6C166.1,18.7,167,18.3,168,18.3z M166.4,21.9c0,0.7,0.1,1.2,0.4,1.6
		c0.3,0.4,0.7,0.6,1.2,0.6c0.5,0,1-0.2,1.2-0.6c0.3-0.4,0.4-0.9,0.4-1.6c0-0.7-0.1-1.2-0.4-1.6c-0.3-0.4-0.7-0.6-1.2-0.6
		c-0.5,0-0.9,0.2-1.2,0.6C166.5,20.7,166.4,21.2,166.4,21.9z"/>
	<path class="st3" d="M175.2,18.3c0.9,0,1.6,0.2,2.1,0.5c0.5,0.4,0.8,0.9,0.9,1.6h-1.8c0-0.3-0.1-0.6-0.4-0.7
		c-0.2-0.1-0.5-0.2-0.9-0.2c-0.3,0-0.6,0.1-0.8,0.2c-0.2,0.1-0.3,0.3-0.3,0.5c0,0.2,0.1,0.3,0.2,0.4c0.1,0.1,0.3,0.2,0.5,0.3
		s0.5,0.1,0.8,0.2c0.8,0.2,1.4,0.3,1.8,0.5c0.3,0.2,0.6,0.4,0.8,0.6c0.2,0.2,0.2,0.5,0.2,0.9c0,0.8-0.3,1.3-0.8,1.7
		c-0.5,0.4-1.3,0.6-2.2,0.6c-1,0-1.8-0.2-2.3-0.6c-0.5-0.4-0.8-1-0.9-1.7h1.8c0,0.3,0.1,0.6,0.4,0.8s0.6,0.3,1,0.3
		c0.3,0,0.6-0.1,0.9-0.2c0.2-0.2,0.3-0.4,0.3-0.6c0-0.2-0.1-0.3-0.2-0.4c-0.1-0.1-0.3-0.2-0.6-0.3c-0.3-0.1-0.7-0.2-1.2-0.3
		c-0.4-0.1-0.8-0.2-1.2-0.4s-0.6-0.3-0.8-0.6s-0.3-0.5-0.3-0.9c0-0.4,0.1-0.8,0.3-1.2c0.2-0.3,0.5-0.6,1-0.7
		C174,18.4,174.6,18.3,175.2,18.3z"/>
	<path class="st3" d="M181.1,16v1.5h-1.8V16H181.1z M181.1,18.5v6.7h-1.8v-6.7H181.1z"/>
	<path class="st3" d="M184.7,16.5v2h1.4v1.2h-1.4v3.3c0,0.3,0.1,0.5,0.2,0.6c0.1,0.1,0.3,0.2,0.6,0.2c0.2,0,0.4,0,0.6-0.1v1.4
		c-0.3,0-0.6,0.1-1.1,0.1c-0.7,0-1.2-0.1-1.6-0.4c-0.3-0.2-0.5-0.7-0.5-1.3v-3.9h-1.1v-1.2h1.1v-2H184.7z"/>
	<path class="st3" d="M188.9,16v1.5h-1.8V16H188.9z M188.9,18.5v6.7h-1.8v-6.7H188.9z"/>
	<path class="st3" d="M193.4,18.3c1.1,0,1.9,0.3,2.5,1c0.6,0.7,0.9,1.5,0.9,2.6c0,1.1-0.3,1.9-1,2.6s-1.5,1-2.5,1
		c-1.1,0-1.9-0.3-2.5-1s-0.9-1.5-0.9-2.6c0-1.1,0.3-1.9,1-2.6C191.5,18.7,192.3,18.3,193.4,18.3z M191.8,21.9c0,0.7,0.1,1.2,0.4,1.6
		c0.3,0.4,0.7,0.6,1.2,0.6c0.5,0,1-0.2,1.2-0.6c0.3-0.4,0.4-0.9,0.4-1.6c0-0.7-0.1-1.2-0.4-1.6c-0.3-0.4-0.7-0.6-1.2-0.6
		c-0.5,0-0.9,0.2-1.2,0.6C191.9,20.7,191.8,21.2,191.8,21.9z"/>
	<path class="st3" d="M201.7,18.3c0.9,0,1.5,0.2,1.9,0.7s0.6,1.1,0.6,2.1v4.2h-1.8v-3.8c0-0.6-0.1-1-0.3-1.2s-0.5-0.4-0.9-0.4
		c-0.5,0-0.9,0.2-1.1,0.5c-0.2,0.3-0.3,0.8-0.3,1.5v3.5h-1.8v-6.7h1.8v0.9h0C200.1,18.7,200.8,18.3,201.7,18.3z"/>
</g>
</svg>
