<?xml version="1.0" encoding="utf-8"?>
<!-- Generator: Adobe Illustrator 19.2.1, SVG Export Plug-In . SVG Version: 6.00 Build 0)  -->
<svg version="1.1" id="Layer_1" xmlns="http://www.w3.org/2000/svg" xmlns:xlink="http://www.w3.org/1999/xlink" x="0px" y="0px"
	 viewBox="0 0 227 30.1" style="enable-background:new 0 0 227 30.1;" xml:space="preserve">
<style type="text/css">
	.st0{fill:none;stroke:#4898E2;stroke-miterlimit:10;}
	.st1{fill:none;stroke:#4898E2;stroke-width:2;stroke-miterlimit:10;}
	.st2{fill:#00B5A1;}
	.st3{fill:#4898E2;}
	.st4{fill:none;}
	.st5{enable-background:new    ;}
</style>
<path class="st0" d="M212.7,10.8H19.2"/>
<circle class="st1" cx="10.8" cy="10.8" r="8.8"/>
<circle class="st2" cx="10.8" cy="10.8" r="4.1"/>
<polygon class="st3" points="227,10.8 211.2,19.9 211.2,1.7 "/>
<rect x="140" y="16" class="st4" width="64.8" height="17.2"/>
<g class="st5">
	<path class="st3" d="M173.6,15.7c1.1,0,2,0.3,2.7,0.8c0.7,0.5,1,1.3,1,2.2h-2c0-0.5-0.2-0.8-0.5-1.1c-0.3-0.2-0.7-0.4-1.3-0.4
		c-0.4,0-0.8,0.1-1,0.3c-0.3,0.2-0.4,0.4-0.4,0.8c0,0.3,0.1,0.5,0.2,0.6c0.2,0.1,0.4,0.2,0.7,0.3c0.3,0.1,0.8,0.2,1.5,0.4
		c0.8,0.2,1.4,0.4,1.8,0.6s0.7,0.5,0.9,0.9c0.2,0.4,0.3,0.8,0.3,1.3c0,0.6-0.2,1.1-0.5,1.6c-0.3,0.5-0.8,0.8-1.4,1
		c-0.6,0.2-1.3,0.4-2,0.4c-1.2,0-2.1-0.3-2.8-0.9c-0.7-0.6-1.1-1.4-1.1-2.4v-0.1h2c0,0.5,0.2,1,0.6,1.3s0.9,0.4,1.5,0.4
		c0.5,0,1-0.1,1.3-0.3c0.3-0.2,0.5-0.5,0.5-0.9c0-0.3-0.1-0.5-0.3-0.6c-0.2-0.2-0.4-0.3-0.7-0.4c-0.3-0.1-0.8-0.2-1.5-0.4
		c-0.8-0.2-1.4-0.4-1.8-0.7c-0.4-0.2-0.7-0.5-0.9-0.9c-0.2-0.3-0.3-0.7-0.3-1.2c0-0.6,0.2-1.1,0.5-1.5c0.3-0.4,0.8-0.8,1.3-1
		C172.5,15.8,173,15.7,173.6,15.7z"/>
	<path class="st3" d="M182.4,18.3c0.9,0,1.7,0.3,2.2,1c0.6,0.6,0.8,1.5,0.8,2.6c0,1-0.3,1.8-0.8,2.5s-1.2,1-2.2,1
		c-0.9,0-1.6-0.3-2-1h0v3.2h-1.8v-9.1h1.8v0.9h0C180.8,18.7,181.5,18.3,182.4,18.3z M180.4,21.9c0,0.7,0.1,1.2,0.4,1.6
		c0.3,0.4,0.7,0.6,1.2,0.6c0.5,0,0.9-0.2,1.2-0.6c0.3-0.4,0.4-0.9,0.4-1.6c0-0.7-0.1-1.2-0.4-1.6s-0.7-0.6-1.2-0.6
		c-0.5,0-0.9,0.2-1.2,0.6C180.5,20.7,180.4,21.2,180.4,21.9z"/>
	<path class="st3" d="M189.4,18.3c2,0,2.9,0.6,2.9,1.9v3.6c0,0.7,0.1,1.1,0.2,1.4h-1.9c-0.1-0.2-0.1-0.4-0.1-0.7
		c-0.5,0.6-1.3,0.8-2.3,0.8c-0.7,0-1.3-0.2-1.7-0.5c-0.4-0.4-0.6-0.8-0.6-1.5c0-0.6,0.2-1.1,0.6-1.4c0.4-0.4,1.1-0.6,2.2-0.7
		c0.7-0.1,1.2-0.2,1.4-0.3s0.3-0.3,0.3-0.5c0-0.3-0.1-0.5-0.3-0.7s-0.5-0.2-0.9-0.2c-0.4,0-0.7,0.1-0.9,0.2
		c-0.2,0.2-0.3,0.4-0.4,0.8h-1.8c0-0.7,0.3-1.3,0.9-1.7C187.7,18.5,188.5,18.3,189.4,18.3z M187.9,23.3c0,0.6,0.4,0.9,1.1,0.9
		c1,0,1.5-0.5,1.5-1.5V22c-0.1,0.1-0.5,0.3-1.1,0.3c-0.5,0.1-0.9,0.2-1.1,0.3C188,22.8,187.9,23,187.9,23.3z"/>
	<path class="st3" d="M197.6,18.3c0.2,0,0.3,0,0.4,0.1v1.7c-0.2,0-0.4-0.1-0.7-0.1c-1.2,0-1.8,0.7-1.8,2.2v3h-1.8v-6.7h1.8v1.2h0
		c0.2-0.4,0.5-0.8,0.9-1C196.8,18.5,197.2,18.3,197.6,18.3z"/>
	<path class="st3" d="M200.8,16v5l2.3-2.4h2.2l-2.5,2.5l2.8,4.3h-2.2l-1.8-3l-0.7,0.7v2.3h-1.8V16H200.8z"/>
</g>
</svg>
