<?xml version="1.0" encoding="utf-8"?>
<!-- Generator: Adobe Illustrator 19.2.1, SVG Export Plug-In . SVG Version: 6.00 Build 0)  -->
<svg version="1.1" id="Layer_1" xmlns="http://www.w3.org/2000/svg" xmlns:xlink="http://www.w3.org/1999/xlink" x="0px" y="0px"
	 viewBox="0 0 1643 406" style="enable-background:new 0 0 1643 406;" xml:space="preserve">
<style type="text/css">
	.st0{fill:none;stroke:#4898E2;stroke-width:2;stroke-miterlimit:10;}
	.st1{fill:#FFFFFF;stroke:#4898E2;stroke-width:4;stroke-miterlimit:10;}
	.st2{fill:#4898E2;}
	.st3{fill:none;stroke:#4898E2;stroke-width:4;stroke-miterlimit:10;}
	.st4{fill:#00B5A1;}
	.st5{opacity:0;clip-path:url(#SVGID_2_);fill:#FFFFFF;}
	.st6{clip-path:url(#SVGID_2_);}
	.st7{fill:none;}
	.st8{fill:#00B3A5;}
	.st9{font-family:'HelvNeueBoldforIBM';}
	.st10{font-size:30px;}
	.st11{fill:#565656;}
	.st12{font-family:'HelvNeueLightforIBM';}
</style>
<path class="st0" d="M11.9,302.5c0-27.8,0-65.4,0-106.5v0c0-85,69.6-154.6,154.6-154.6h1321.9c85,0,154.6,69.6,154.6,154.6v0
	c0,85-69.6,154.6-154.6,154.6H23.2"/>
<circle class="st1" cx="426.9" cy="350.5" r="8.8"/>
<polygon class="st2" points="12,316.1 0,295.3 24,295.3 "/>
<circle class="st3" cx="12.8" cy="350.5" r="8.8"/>
<circle class="st4" cx="12.8" cy="350.5" r="4.1"/>
<circle class="st4" cx="426.9" cy="350.5" r="4.1"/>
<circle class="st1" cx="853.5" cy="350.5" r="8.8"/>
<circle class="st4" cx="853.5" cy="350.5" r="4.1"/>
<circle class="st1" cx="1275.4" cy="350.5" r="8.8"/>
<circle class="st4" cx="1275.4" cy="350.5" r="4.1"/>
<g>
	<defs>
		<rect id="SVGID_1_" x="1447" y="185.3" width="117" height="110"/>
	</defs>
	<clipPath id="SVGID_2_">
		<use xlink:href="#SVGID_1_"  style="overflow:visible;"/>
	</clipPath>
	<rect x="1447" y="185.3" class="st5" width="117" height="110"/>
	<g class="st6">
		<defs>
			<rect id="SVGID_3_" x="1447" y="185.3" width="117" height="110"/>
		</defs>
		<clipPath id="SVGID_4_">
			<use xlink:href="#SVGID_3_"  style="overflow:visible;"/>
		</clipPath>
		<g style="clip-path:url(#SVGID_4_);">
			
				<image style="overflow:visible;" width="208" height="196" xlink:href="FC39B0125622509E.png"  transform="matrix(0.5625 0 0 0.5612 1446.9855 185.3131)">
			</image>
		</g>
	</g>
</g>
<rect x="293" y="107.5" class="st7" width="1057" height="225"/>
<text transform="matrix(1 0 0 1 669.3867 128.9199)"><tspan x="0" y="0" class="st8 st9 st10">SellForward + Watson</tspan><tspan x="-344.6" y="72" class="st11 st12 st10">As sellers continue to use ideaGarage, it grows smarter and more valuable — </tspan><tspan x="-277.4" y="108" class="st11 st12 st10">while adding volumes of data and insight to Watson’s sales corpus</tspan></text>
<polygon class="st2" points="62.8,350.5 42.1,362.5 42.1,338.5 "/>
<polygon class="st2" points="107.1,350.5 86.3,362.5 86.3,338.5 "/>
<polygon class="st2" points="151.3,350.5 130.5,362.5 130.5,338.5 "/>
<polygon class="st2" points="481.3,350.5 460.6,362.5 460.6,338.5 "/>
<polygon class="st2" points="525.6,350.5 504.8,362.5 504.8,338.5 "/>
<polygon class="st2" points="569.8,350.5 549,362.5 549,338.5 "/>
<polygon class="st2" points="910.3,350.5 889.6,362.5 889.6,338.5 "/>
<polygon class="st2" points="954.6,350.5 933.8,362.5 933.8,338.5 "/>
<polygon class="st2" points="998.8,350.5 978,362.5 978,338.5 "/>
<polygon class="st2" points="1334.1,350.5 1313.3,362.5 1313.3,338.5 "/>
<polygon class="st2" points="1378.3,350.5 1357.5,362.5 1357.5,338.5 "/>
<polygon class="st2" points="1422.5,350.5 1401.7,362.5 1401.7,338.5 "/>
</svg>
